<?xml version="1.0" encoding="UTF-8"?>
<svg version="1.1" xmlns="http://www.w3.org/2000/svg" width="50" height="50">
<path d="M0 0 C2.3125 0.375 2.3125 0.375 3.3125 1.375 C4.17055905 8.23947239 1.48131278 13.27500925 -1.4375 19.375 C-1.8809375 20.3340625 -2.324375 21.293125 -2.78125 22.28125 C-9.95400552 37.63938536 -9.95400552 37.63938536 -14.6875 39.375 C-18.01939998 42.70689998 -19.30961392 45.94608046 -20.6875 50.375 C-21.3475 50.375 -22.0075 50.375 -22.6875 50.375 C-21.6975 46.745 -20.7075 43.115 -19.6875 39.375 C-20.3475 39.045 -21.0075 38.715 -21.6875 38.375 C-21.6875 37.715 -21.6875 37.055 -21.6875 36.375 C-21.0275 36.375 -20.3675 36.375 -19.6875 36.375 C-19.89375 35.611875 -20.1 34.84875 -20.3125 34.0625 C-20.6875 31.375 -20.6875 31.375 -18.6875 28.375 C-17.9358495 26.55076957 -17.20973239 24.71594407 -16.5 22.875 C-7.56038658 1.05493766 -7.56038658 1.05493766 0 0 Z " fill="#000000" transform="translate(34.6875,-0.375)"/>
</svg>
