<?xml version="1.0" encoding="UTF-8"?>
<svg version="1.1" xmlns="http://www.w3.org/2000/svg" width="200" height="200">
<path d="M0 0 C66 0 132 0 200 0 C200 66 200 132 200 200 C134 200 68 200 0 200 C0 134 0 68 0 0 Z " fill="#36517D" transform="translate(0,0)"/>
<path d="M0 0 C6.27194034 3.54846704 9.84514445 7.92717602 12.1171875 14.80859375 C13.65986222 21.08609319 12.80852756 25.97458566 10.02734375 31.6953125 C6.579084 37.05500314 1.6965968 40.95292646 -4.375 42.875 C-11.4591429 43.73670752 -17.7953696 43.81897814 -23.66015625 39.4296875 C-29.71600356 33.93942047 -33.01227578 29.37278029 -33.6875 21 C-33.46243043 14.04932213 -30.81318903 8.4728581 -26.09375 3.41796875 C-18.52351027 -3.37804191 -9.1710015 -4.21702301 0 0 Z " fill="#E1E3E7" transform="translate(109.375,81.125)"/>
<path d="M0 0 C17.82 0 35.64 0 54 0 C53.67 0.66 53.34 1.32 53 2 C52.01 2.33 51.02 2.66 50 3 C49.67 3.99 49.34 4.98 49 6 C50.32 6 51.64 6 53 6 C53 5.01 53 4.02 53 3 C53.66 3 54.32 3 55 3 C55.95860588 14.50002832 56.12099733 25.90317238 56.0625 37.4375 C56.041875 43.233125 56.02125 49.02875 56 55 C37.52 55 19.04 55 0 55 C0 36.85 0 18.7 0 0 Z M8.41015625 14.92578125 C4.96417944 19.99451722 4.13096981 25.99477859 5 32 C7.16948086 39.95018619 11.99170892 44.85403565 18.859375 49.16796875 C24.16803981 51.23137314 30.93702476 50.7933608 36.3828125 49.3828125 C42.76298703 46.55551947 47.45656647 41.22107866 50.4375 35 C51.91531107 27.11834095 50.98579292 20.99858345 47 14 C42.68354489 8.90359137 37.08612358 5.49621591 30.39453125 4.68359375 C20.55388034 4.26282109 14.57951003 7.32300131 8.41015625 14.92578125 Z " fill="#3B537B" transform="translate(71,74)"/>
<path d="M0 0 C1.85202026 -0.00945648 1.85202026 -0.00945648 3.74145508 -0.019104 C5.09456525 -0.01552432 6.44767412 -0.01142238 7.80078125 -0.00683594 C9.18318754 -0.00818268 10.56559338 -0.01012329 11.94799805 -0.01263428 C14.84656276 -0.01558511 17.74500428 -0.0112893 20.64355469 -0.00195312 C24.36288762 0.00944152 28.08193193 0.00288181 31.80125427 -0.00909805 C34.65623152 -0.01631782 37.5111401 -0.01402822 40.36611938 -0.00884247 C41.73768142 -0.00750629 43.10924964 -0.0091526 44.48080444 -0.01380157 C46.39605595 -0.01886842 48.31132926 -0.00977925 50.2265625 0 C51.31751221 0.00159119 52.40846191 0.00318237 53.5324707 0.00482178 C56.11328125 0.25878906 56.11328125 0.25878906 58.11328125 2.25878906 C58.36724854 4.80163574 58.36724854 4.80163574 58.37207031 8.05371094 C58.37837463 9.26837036 58.38467896 10.48302979 58.39117432 11.73449707 C58.38712585 13.05220093 58.38307739 14.36990479 58.37890625 15.72753906 C58.38025301 17.08752512 58.38219364 18.44751071 58.38470459 19.80749512 C58.38765534 22.65898213 58.38335989 25.51034393 58.37402344 28.36181641 C58.36262879 32.02061683 58.36918854 35.67912386 58.38116837 39.33791351 C58.38838837 42.14656798 58.38609842 44.95515266 58.38091278 47.7638092 C58.37892586 49.77023509 58.38500988 51.77666366 58.39117432 53.78308105 C58.38171783 55.60507019 58.38171783 55.60507019 58.37207031 57.46386719 C58.37047913 58.537052 58.36888794 59.61023682 58.36724854 60.71594238 C58.11328125 63.25878906 58.11328125 63.25878906 56.11328125 65.25878906 C53.5324707 65.51948547 53.5324707 65.51948547 50.2265625 65.53344727 C48.99188232 65.54297928 47.75720215 65.55251129 46.48510742 65.56233215 C45.13199841 65.56207076 43.77888938 65.56113387 42.42578125 65.55957031 C41.04337433 65.56345565 39.66096861 65.56778998 38.27856445 65.57255554 C35.38000622 65.58002239 32.48156977 65.57972292 29.58300781 65.57446289 C25.86358145 65.56866369 22.14465233 65.58560724 18.42530823 65.60880756 C15.57032341 65.6235188 12.71545912 65.62442028 9.86044312 65.62129784 C8.4888714 65.62181224 7.11729314 65.62707234 5.74575806 65.63710976 C3.8305438 65.64940663 1.91522936 65.64076558 0 65.63110352 C-1.09094971 65.63173294 -2.18189941 65.63236237 -3.3059082 65.63301086 C-4.15757568 65.50951767 -5.00924316 65.38602448 -5.88671875 65.25878906 C-8.18785657 61.80708233 -8.13936438 60.50844858 -8.14550781 56.44213867 C-8.15181213 55.24757553 -8.15811646 54.05301239 -8.16461182 52.82225037 C-8.16056335 51.53158157 -8.15651489 50.24091278 -8.15234375 48.91113281 C-8.15369097 47.57499623 -8.15563198 46.23886012 -8.15814209 44.90272522 C-8.16108966 42.10429206 -8.15680693 39.30598666 -8.14746094 36.50756836 C-8.13605543 32.91717606 -8.14263491 29.3270824 -8.15460587 25.73670101 C-8.16182504 22.97866048 -8.1595365 20.22069104 -8.15435028 17.46264839 C-8.15236419 15.4938907 -8.15844608 13.52513026 -8.16461182 11.55638123 C-8.1583075 10.36497025 -8.15200317 9.17355927 -8.14550781 7.94604492 C-8.14391663 6.8936412 -8.14232544 5.84123749 -8.14068604 4.75694275 C-7.61135242 -0.44985676 -4.43215463 0.00646445 0 0 Z M-2.88671875 5.25878906 C-2.88671875 23.40878906 -2.88671875 41.55878906 -2.88671875 60.25878906 C15.59328125 60.25878906 34.07328125 60.25878906 53.11328125 60.25878906 C53.14421875 51.56535156 53.14421875 51.56535156 53.17578125 42.69628906 C53.18488525 40.90118896 53.19398926 39.10608887 53.20336914 37.2565918 C53.23115373 27.54374459 52.92031447 17.94045812 52.11328125 8.25878906 C51.45328125 8.25878906 50.79328125 8.25878906 50.11328125 8.25878906 C50.11328125 9.24878906 50.11328125 10.23878906 50.11328125 11.25878906 C48.79328125 11.25878906 47.47328125 11.25878906 46.11328125 11.25878906 C47.11328125 8.25878906 47.11328125 8.25878906 49.17578125 7.07128906 C49.81515625 6.80316406 50.45453125 6.53503906 51.11328125 6.25878906 C51.11328125 5.92878906 51.11328125 5.59878906 51.11328125 5.25878906 C33.29328125 5.25878906 15.47328125 5.25878906 -2.88671875 5.25878906 Z " fill="#D3D8E0" transform="translate(73.88671875,68.7412109375)"/>
<path d="M0 0 C2.9375 1.5625 2.9375 1.5625 5 4 C5.5197844 7.63849082 5.42741214 9.98489618 4 13.375 C0.98604933 15.82383492 -2.22548688 16.22030232 -6 16 C-9 14.5625 -9 14.5625 -11 13 C-11.08765625 13.62390625 -11.1753125 14.2478125 -11.265625 14.890625 C-12 17 -12 17 -13.609375 18.046875 C-21.00023255 20.47452894 -29.50955081 21.4968164 -37 19 C-37 22.3 -37 25.6 -37 29 C-29.41 29.33 -21.82 29.66 -14 30 C-13.67 28.68 -13.34 27.36 -13 26 C-12 25 -12 25 -8.625 24.75 C-5 25 -5 25 -3 26.0625 C-1.36621149 29.22796524 -2.14732436 31.65020286 -3 35 C-6.22791555 37.1519437 -7.28400809 37.20086443 -11 37 C-10.95875 38.258125 -10.9175 39.51625 -10.875 40.8125 C-10.7609626 44.29064073 -10.94074319 44.91111478 -13 48 C-16.125 48.1875 -16.125 48.1875 -19 48 C-19.33 47.01 -19.66 46.02 -20 45 C-25.61 45 -31.22 45 -37 45 C-36.979375 46.77375 -36.95875 48.5475 -36.9375 50.375 C-36.93084671 55.97707006 -37.31161145 61.443721 -38 67 C-38.33 67 -38.66 67 -39 67 C-39.13067833 59.22878853 -39.26108722 51.45757259 -39.39115143 43.68635082 C-39.45155285 40.0779263 -39.51204733 36.46950339 -39.57275391 32.86108398 C-39.63132755 29.37924368 -39.68965751 25.89739937 -39.74781799 22.41555214 C-39.78088722 20.43964483 -39.8142093 18.46374176 -39.84753418 16.48783875 C-39.86755493 15.28682022 -39.88757568 14.0858017 -39.90820312 12.84838867 C-39.93485046 11.25954109 -39.93485046 11.25954109 -39.96203613 9.63859558 C-39.98907648 7.75921564 -40 5.87957446 -40 4 C-37.50494038 6.49505962 -37.64051624 7.67328888 -37.375 11.125 C-37.30023438 12.03507812 -37.22546875 12.94515625 -37.1484375 13.8828125 C-37.07496094 14.93082031 -37.07496094 14.93082031 -37 16 C-23.48748863 16.19864978 -23.48748863 16.19864978 -12 10 C-10.53977565 6.47548841 -10.53977565 6.47548841 -10 3 C-7.56420175 -0.97419715 -4.33327921 -0.52298197 0 0 Z " fill="#3F557C" transform="translate(171,64)"/>
<path d="M0 0 C19.8 0 39.6 0 60 0 C60 0.33 60 0.66 60 1 C50.1 1.495 50.1 1.495 40 2 C39.67 2.66 39.34 3.32 39 4 C39.99 4.33 40.98 4.66 42 5 C41.34 5 40.68 5 40 5 C39.40185349 14.52629175 39.40185349 14.52629175 41.6875 23.625 C43 27 43 27 42.0625 29.4375 C39.42236364 31.4376033 37.26232523 31.71001554 34 32 C33.938125 32.721875 33.87625 33.44375 33.8125 34.1875 C32.69450034 38.05749882 31.22410993 39.59906707 28 42 C24.92766179 42.76198864 23.26525364 42.51829423 20 42 C17.00902696 39.45767292 16.15797443 37.8425303 15.4375 34 C16 31 16 31 18.484375 29.05078125 C22.28355135 24.44339503 21.78060682 19.98851544 21.8125 14.1875 C21.83763672 13.11306641 21.86277344 12.03863281 21.88867188 10.93164062 C21.94743295 8.28739229 21.98379376 5.64479512 22 3 C22.99 3 23.98 3 25 3 C25 2.34 25 1.68 25 1 C16.75 1 8.5 1 0 1 C0 0.67 0 0.34 0 0 Z " fill="#485E84" transform="translate(69,134)"/>
<path d="M0 0 C3 1.9375 3 1.9375 5 5 C4.97457879 7.41925183 4.64057266 9.55689866 4.1015625 11.9140625 C4.06804687 12.60242187 4.03453125 13.29078125 4 14 C4.48686279 14.41918701 4.97372559 14.83837402 5.4753418 15.27026367 C7.65742924 17.74585847 7.34257734 19.50408819 7.29296875 22.76171875 C7.28330078 23.87998047 7.27363281 24.99824219 7.26367188 26.15039062 C7.23853516 27.31763672 7.21339844 28.48488281 7.1875 29.6875 C7.16719727 31.45577148 7.16719727 31.45577148 7.14648438 33.25976562 C7.11109326 36.17363411 7.06171809 39.08658945 7 42 C5.68 42 4.36 42 3 42 C3 42.66 3 43.32 3 44 C15.87 44 28.74 44 42 44 C42 44.33 42 44.66 42 45 C22.2 45 2.4 45 -18 45 C-18 44.67 -18 44.34 -18 44 C-15.36 43.67 -12.72 43.34 -10 43 C-10.08715017 41.06166004 -10.19532964 39.1242571 -10.3125 37.1875 C-10.37050781 36.10855469 -10.42851563 35.02960937 -10.48828125 33.91796875 C-11.0498741 30.71560344 -11.68245249 30.0920564 -14 28 C-13.77669287 24.35265021 -13.61627165 22.61627165 -11 20 C-10.34 19.67 -9.68 19.34 -9 19 C-9 18.34 -9 17.68 -9 17 C-8.34 17 -7.68 17 -7 17 C-7.66 16.34 -8.32 15.68 -9 15 C-11.75777063 10.86334406 -11.62388198 8.91307062 -11 4 C-8.16650967 -0.53358453 -5.10426635 -0.80593679 0 0 Z " fill="#4A5F85" transform="translate(87,24)"/>
<path d="M0 0 C0.82741699 0.01047363 1.65483398 0.02094727 2.50732422 0.03173828 C3.40322266 0.03818359 4.29912109 0.04462891 5.22216797 0.05126953 C6.62789062 0.07640625 6.62789062 0.07640625 8.06201172 0.10205078 C9.00689453 0.11107422 9.95177734 0.12009766 10.92529297 0.12939453 C13.26278464 0.15300556 15.59977295 0.18593562 17.93701172 0.22705078 C17.93701172 0.55705078 17.93701172 0.88705078 17.93701172 1.22705078 C11.99701172 1.55705078 6.05701172 1.88705078 -0.06298828 2.22705078 C-0.06298828 2.55705078 -0.06298828 2.88705078 -0.06298828 3.22705078 C1.05076172 2.91767578 1.05076172 2.91767578 2.18701172 2.60205078 C5.26032013 2.18296327 6.36488037 2.60756068 8.93701172 4.22705078 C6.29701172 4.22705078 3.65701172 4.22705078 0.93701172 4.22705078 C0.93701172 23.03705078 0.93701172 41.84705078 0.93701172 61.22705078 C6.13451172 61.20642578 11.33201172 61.18580078 16.68701172 61.16455078 C29.46738004 61.13948644 42.1817003 61.3495355 54.93701172 62.22705078 C54.93701172 62.88705078 54.93701172 63.54705078 54.93701172 64.22705078 C56.25701172 64.55705078 57.57701172 64.88705078 58.93701172 65.22705078 C51.01817488 65.2964848 43.09946469 65.34982806 35.18039894 65.3824873 C31.50345757 65.39816015 27.82672406 65.41942737 24.14990234 65.45336914 C20.60320359 65.48590575 17.05670507 65.50389159 13.50986862 65.51168251 C12.15502137 65.51723636 10.80018539 65.52808147 9.44542313 65.54424095 C7.55161427 65.56593681 5.65760497 65.56727551 3.76367188 65.56762695 C2.14484604 65.57761971 2.14484604 65.57761971 0.49331665 65.58781433 C-0.35026398 65.46876236 -1.1938446 65.34971039 -2.06298828 65.22705078 C-4.3641261 61.77534405 -4.31563391 60.4767103 -4.32177734 56.41040039 C-4.32808167 55.21583725 -4.33438599 54.02127411 -4.34088135 52.79051208 C-4.33683289 51.49984329 -4.33278442 50.2091745 -4.32861328 48.87939453 C-4.3299605 47.54325795 -4.33190152 46.20712184 -4.33441162 44.87098694 C-4.33735919 42.07255378 -4.33307646 39.27424838 -4.32373047 36.47583008 C-4.31232496 32.88543778 -4.31890444 29.29534412 -4.3308754 25.70496273 C-4.33809457 22.9469222 -4.33580603 20.18895275 -4.33061981 17.43091011 C-4.32863372 15.46215242 -4.33471561 13.49339198 -4.34088135 11.52464294 C-4.33457703 10.33323196 -4.32827271 9.14182098 -4.32177734 7.91430664 C-4.32018616 6.86190292 -4.31859497 5.80949921 -4.31695557 4.72520447 C-3.9946789 1.55512436 -3.26109401 0.35891331 0 0 Z " fill="#DFE3E9" transform="translate(70.06298828125,68.77294921875)"/>
<path d="M0 0 C4.0365015 1.48143766 6.46359507 3.26244322 9 6.75 C10.23427095 10.7613806 10.31358169 14.0435234 9 18 C7.16831486 20.9549485 5.1633409 23.41832955 2 25 C-2.24010376 25.6123733 -6.23981295 25.82646775 -10.1796875 23.9765625 C-13.73958962 21.30294306 -15.4140079 18.92311928 -16.125 14.5 C-16.2601723 10.26697261 -15.51943224 7.49469633 -13 4 C-8.68847354 0.27640896 -5.65818676 -0.79413148 0 0 Z " fill="#DAE0E7" transform="translate(102,89)"/>
<path d="M0 0 C1.670625 0.061875 1.670625 0.061875 3.375 0.125 C4.035 1.445 4.695 2.765 5.375 4.125 C6.12185059 4.10928955 6.86870117 4.0935791 7.63818359 4.07739258 C11.00871261 4.01518923 14.37912112 3.9760558 17.75 3.9375 C18.925625 3.91236328 20.10125 3.88722656 21.3125 3.86132812 C22.99472656 3.84682617 22.99472656 3.84682617 24.7109375 3.83203125 C25.74782715 3.8163208 26.7847168 3.80061035 27.85302734 3.78442383 C29.10140381 3.95300903 29.10140381 3.95300903 30.375 4.125 C32.77619059 7.72678588 32.81271322 10.63366369 33 14.8125 C33.05800781 15.8653418 33.05800781 15.8653418 33.1171875 16.93945312 C33.2112334 18.66754655 33.2941968 20.39623675 33.375 22.125 C32.37597656 22.11339844 31.37695312 22.10179688 30.34765625 22.08984375 C29.05730469 22.08082031 27.76695313 22.07179688 26.4375 22.0625 C25.14972656 22.05089844 23.86195312 22.03929688 22.53515625 22.02734375 C19.51201597 21.75967451 19.51201597 21.75967451 18.375 23.125 C15.9375 23.3125 15.9375 23.3125 13.375 23.125 C11.375 21.125 11.375 21.125 11.0625 18.6875 C11.375 16.125 11.375 16.125 12.5625 14.4375 C14.71312088 12.88015384 16.90378361 12.07546784 19.375 11.125 C20.035 10.465 20.695 9.805 21.375 9.125 C14.445 8.63 14.445 8.63 7.375 8.125 C7.375 9.775 7.375 11.425 7.375 13.125 C5.375 14.125 5.375 14.125 3.28125 13.63671875 C2.4871875 13.36472656 1.693125 13.09273437 0.875 12.8125 C-0.31609375 12.41611328 -0.31609375 12.41611328 -1.53125 12.01171875 C-3.625 11.125 -3.625 11.125 -5.625 9.125 C-5.875 5.625 -5.875 5.625 -5.625 2.125 C-3.625 0.125 -3.625 0.125 0 0 Z " fill="#4A6086" transform="translate(32.625,88.875)"/>
<path d="M0 0 C1.32 0.33 2.64 0.66 4 1 C4 1.99 4 2.98 4 4 C2.7934375 4.4640625 2.7934375 4.4640625 1.5625 4.9375 C-0.89080405 5.76335345 -0.89080405 5.76335345 -2 7 C-2.15996166 9.59153107 -2.25938697 12.1595202 -2.31640625 14.75390625 C-2.33718735 15.52935287 -2.35796844 16.3047995 -2.37937927 17.10374451 C-2.44495802 19.58990308 -2.50379799 22.07617045 -2.5625 24.5625 C-2.60567733 26.24415204 -2.64929136 27.92579294 -2.69335938 29.60742188 C-2.80064779 33.73816871 -2.90189132 37.86902536 -3 42 C-3.33 42 -3.66 42 -4 42 C-4.09087891 41.09507813 -4.09087891 41.09507813 -4.18359375 40.171875 C-4.30927734 38.97304687 -4.30927734 38.97304687 -4.4375 37.75 C-4.51871094 36.96109375 -4.59992188 36.1721875 -4.68359375 35.359375 C-4.99511197 32.70381637 -4.99511197 32.70381637 -6 29 C-14.25 29 -22.5 29 -31 29 C-33 22 -33 22 -32 20 C-23.42 20 -14.84 20 -6 20 C-6 22 -6 24 -6 26 C-5.34 26 -4.68 26 -4 26 C-4.45822468 22.53058454 -4.89131683 19.32604951 -6 16 C-5.34 16 -4.68 16 -4 16 C-4 12.04 -4 8.08 -4 4 C-3.01 4 -2.02 4 -1 4 C-0.67 2.68 -0.34 1.36 0 0 Z " fill="#385079" transform="translate(69,64)"/>
<path d="M0 0 C1.84505084 0.00503402 3.69010305 0.00959351 5.53515625 0.01367188 C9.98180543 0.02450617 14.42838691 0.04166151 18.875 0.0625 C17.885 1.0525 16.895 2.0425 15.875 3.0625 C16.535 3.3925 17.195 3.7225 17.875 4.0625 C17.875 10.3325 17.875 16.6025 17.875 23.0625 C17.545 23.0625 17.215 23.0625 16.875 23.0625 C16.875 18.1125 16.875 13.1625 16.875 8.0625 C16.215 8.0625 15.555 8.0625 14.875 8.0625 C14.875 9.0525 14.875 10.0425 14.875 11.0625 C13.555 11.0625 12.235 11.0625 10.875 11.0625 C11.1875 9.125 11.1875 9.125 11.875 7.0625 C12.865 6.7325 13.855 6.4025 14.875 6.0625 C-2.615 5.7325 -20.105 5.4025 -38.125 5.0625 C-36.805 4.4025 -35.485 3.7425 -34.125 3.0625 C-35.775 3.0625 -37.425 3.0625 -39.125 3.0625 C-39.125 5.3725 -39.125 7.6825 -39.125 10.0625 C-39.785 9.0725 -40.445 8.0825 -41.125 7.0625 C-40.25 3.875 -40.25 3.875 -39.125 1.0625 C-26.06806926 0.17747038 -13.08413833 -0.06323722 0 0 Z " fill="#E2E6E9" transform="translate(109.125,68.9375)"/>
<path d="M0 0 C3 1.9375 3 1.9375 5 5 C4.97457879 7.41925183 4.64057266 9.55689866 4.1015625 11.9140625 C4.06804687 12.60242187 4.03453125 13.29078125 4 14 C4.48686279 14.41918701 4.97372559 14.83837402 5.4753418 15.27026367 C7.65742924 17.74585847 7.34257734 19.50408819 7.29296875 22.76171875 C7.28330078 23.87998047 7.27363281 24.99824219 7.26367188 26.15039062 C7.23853516 27.31763672 7.21339844 28.48488281 7.1875 29.6875 C7.16719727 31.45577148 7.16719727 31.45577148 7.14648438 33.25976562 C7.11109326 36.17363411 7.06171809 39.08658945 7 42 C6.01 42 5.02 42 4 42 C3.67 33.75 3.34 25.5 3 17 C0.07038588 15.81385258 0.07038588 15.81385258 -2.875 16.1875 C-6 16 -6 16 -8.875 14.5 C-11.46043632 11.45831021 -11.69010681 9.79992767 -11.4140625 5.90625 C-11 4 -11 4 -9.4375 1.5 C-6.00863886 -0.61006839 -3.95779649 -0.62491523 0 0 Z " fill="#B7C2D2" transform="translate(87,24)"/>
<path d="M0 0 C1.90625 0.44921875 1.90625 0.44921875 4.40625 2.57421875 C6.13542499 5.88847081 6.3871929 7.76198984 5.90625 11.44921875 C4.91625 12.93421875 4.91625 12.93421875 3.90625 14.44921875 C3.24625 14.44921875 2.58625 14.44921875 1.90625 14.44921875 C2.1228125 14.99191406 2.339375 15.53460938 2.5625 16.09375 C2.8409375 16.80917969 3.119375 17.52460937 3.40625 18.26171875 C3.6846875 18.96941406 3.963125 19.67710938 4.25 20.40625 C4.90625 22.44921875 4.90625 22.44921875 4.90625 25.44921875 C12.49625 25.44921875 20.08625 25.44921875 27.90625 25.44921875 C27.90625 26.10921875 27.90625 26.76921875 27.90625 27.44921875 C19.65625 27.44921875 11.40625 27.44921875 2.90625 27.44921875 C-0.09375 19.44921875 -0.09375 19.44921875 -0.09375 16.44921875 C-1.186875 16.36671875 -2.28 16.28421875 -3.40625 16.19921875 C-7.09375 15.44921875 -7.09375 15.44921875 -9.03125 13.82421875 C-10.53074866 10.47239822 -10.54752473 8.07941657 -10.09375 4.44921875 C-7.53483537 0.29098247 -4.61835112 -0.24987347 0 0 Z " fill="#D6E0EB" transform="translate(34.09375,55.55078125)"/>
<path d="M0 0 C2.89890315 -0.18964787 5.78538869 -0.32785971 8.6875 -0.4375 C9.50412109 -0.49615234 10.32074219 -0.55480469 11.16210938 -0.61523438 C13.62269473 -0.68496756 15.62285266 -0.65380602 18 0 C19.68308218 1.67753269 20.73254719 3.27538253 21.83691406 5.37426758 C23.70606794 7.98692409 26.11663344 7.95481568 29.125 8.49609375 C31 9 31 9 33.5625 11.1875 C35.47911341 14.9373958 35.11396753 16.9897169 34 21 C32.9375 22.9375 32.9375 22.9375 31 24 C24.20754717 24.75471698 24.20754717 24.75471698 20.5 22.4375 C18.45246636 19.11025784 18.66213175 16.85169806 19 13 C19.226875 12.113125 19.45375 11.22625 19.6875 10.3125 C20.20997331 7.97558382 20.20997331 7.97558382 19.0625 5.90234375 C15.85847054 2.94711203 12.52969485 3.32611016 8.3125 3.25 C7.11657227 3.20552734 7.11657227 3.20552734 5.89648438 3.16015625 C3.93153251 3.08955918 1.96576023 3.04250292 0 3 C0 2.01 0 1.02 0 0 Z " fill="#B8C7D6" transform="translate(135,120)"/>
<path d="M0 0 C0.66 0 1.32 0 2 0 C2 3.63 2 7.26 2 11 C1.08476563 11.40089844 0.16953125 11.80179688 -0.7734375 12.21484375 C-7.52338276 15.07749596 -7.52338276 15.07749596 -12.1328125 20.36328125 C-12.37158832 21.91532408 -12.56558462 23.47514317 -12.70703125 25.0390625 C-13 27 -13 27 -15.1875 29.125 C-18.9007915 30.28024624 -21.26483481 30.03754589 -25 29 C-27.81972931 26.63506574 -27.97850831 25.1719335 -28.4375 21.5 C-28 18 -28 18 -26.4375 15.5625 C-23.11293925 13.43137131 -20.88990318 13.65878042 -17 14 C-16.22011719 14.22042969 -15.44023438 14.44085938 -14.63671875 14.66796875 C-10.16619301 15.23092384 -7.14013131 13.13159822 -3.33984375 10.96875 C-0.62234284 8.68223838 -0.17039981 7.6048874 0.1875 4.125 C0.20307057 1.85627493 0.20307057 1.85627493 0 0 Z " fill="#D2DAE6" transform="translate(77,138)"/>
<path d="M0 0 C2.9375 1.5625 2.9375 1.5625 5 4 C5.5197844 7.63849082 5.42741214 9.98489618 4 13.375 C0.98604933 15.82383492 -2.22548688 16.22030232 -6 16 C-9 14.5625 -9 14.5625 -11 13 C-11.4640625 13.3609375 -11.928125 13.721875 -12.40625 14.09375 C-19.95459103 19.16353129 -27.27874329 18.48154178 -36 18 C-36 17.34 -36 16.68 -36 16 C-35.02160156 15.98582031 -34.04320312 15.97164062 -33.03515625 15.95703125 C-21.61739467 15.64323071 -21.61739467 15.64323071 -12 10 C-10.53977565 6.47548841 -10.53977565 6.47548841 -10 3 C-7.56420175 -0.97419715 -4.33327921 -0.52298197 0 0 Z " fill="#D8DFEB" transform="translate(171,64)"/>
<path d="M0 0 C0.66 0 1.32 0 2 0 C2.00257812 1.22976562 2.00515625 2.45953125 2.0078125 3.7265625 C2.04534924 5.35941079 2.08449699 6.9922226 2.125 8.625 C2.12242188 9.43324219 2.11984375 10.24148437 2.1171875 11.07421875 C2.29320485 16.48675224 3.34441867 19.27389839 7.30932617 22.9987793 C10.39104082 24.82377739 13.50174885 24.17204514 17 24 C19 25.125 19 25.125 20 27 C20.42478586 31.07794425 20.31282587 32.53076119 18 36 C12.13004484 36.64035874 12.13004484 36.64035874 9.125 34.9375 C8 33 8 33 7.75 29.75 C6.90223185 25.51115925 6.66147997 25.57591742 3.4375 23.25 C1.18215042 21.27541843 0.12425381 19.82248602 -0.32714844 16.83447266 C-0.62776593 11.21160902 -0.35337524 5.61473994 0 0 Z " fill="#D6DEEB" transform="translate(119,138)"/>
<path d="M0 0 C1.875 1.125 1.875 1.125 3 3 C3.39365568 6.14924548 3.52854531 8.11909116 1.875 10.875 C-0.83526028 12.50115617 -2.89062817 12.25382627 -6 12 C-6.95519531 11.68675781 -6.95519531 11.68675781 -7.9296875 11.3671875 C-11.40351345 10.75107497 -13.45288474 12.39388833 -16.29296875 14.25390625 C-18.93679326 16.95823018 -18.96689751 19.54426085 -19.0625 23.20703125 C-19.0315625 24.09455078 -19.0315625 24.09455078 -19 25 C-19.66 25 -20.32 25 -21 25 C-21.61296675 21.17236315 -21.87525939 17.79800059 -21 14 C-17.80690375 10.93994942 -13.56514213 8 -9 8 C-9.061875 7.236875 -9.12375 6.47375 -9.1875 5.6875 C-9 3 -9 3 -7.875 1.1875 C-5.12844028 -0.55198782 -3.18153026 -0.39769128 0 0 Z " fill="#DBE2ED" transform="translate(139,40)"/>
<path d="M0 0 C1.175625 0.12375 2.35125 0.2475 3.5625 0.375 C4.02116455 1.03016602 4.4798291 1.68533203 4.95239258 2.36035156 C6.40431239 4.6086313 6.40431239 4.6086313 9.0144043 4.92089844 C9.96226807 4.9418457 10.91013184 4.96279297 11.88671875 4.984375 C12.91474609 5.01660156 13.94277344 5.04882812 15.00195312 5.08203125 C16.07380859 5.09621094 17.14566406 5.11039062 18.25 5.125 C19.33345703 5.15464844 20.41691406 5.18429688 21.53320312 5.21484375 C24.20971059 5.28558844 26.88534479 5.33826156 29.5625 5.375 C29.5625 6.035 29.5625 6.695 29.5625 7.375 C28.88670898 7.3843457 28.21091797 7.39369141 27.51464844 7.40332031 C24.4465289 7.45707301 21.37992613 7.54070992 18.3125 7.625 C17.24902344 7.63917969 16.18554688 7.65335937 15.08984375 7.66796875 C14.06503906 7.70019531 13.04023437 7.73242188 11.984375 7.765625 C11.04174805 7.78657227 10.09912109 7.80751953 9.12792969 7.82910156 C5.88173587 8.51985997 4.76522355 9.96912982 2.5625 12.375 C-0.31273324 12.86589348 -1.73195572 12.78859492 -4.25 11.3125 C-6.084421 8.31949731 -5.74857576 5.79683337 -5.4375 2.375 C-3.4375 0.375 -3.4375 0.375 0 0 Z " fill="#DFE6F1" transform="translate(32.4375,88.625)"/>
<path d="M0 0 C3.625 0.25 3.625 0.25 5.625 1.3125 C7.25878851 4.47796524 6.47767564 6.90020286 5.625 10.25 C2.39246204 12.40502531 1.37349077 12.71856135 -2.375 12.25 C-4.1875 10.875 -4.1875 10.875 -5.375 9.25 C-5.375 8.59 -5.375 7.93 -5.375 7.25 C-12.635 7.25 -19.895 7.25 -27.375 7.25 C-27.375 6.59 -27.375 5.93 -27.375 5.25 C-20.115 5.25 -12.855 5.25 -5.375 5.25 C-5.045 3.93 -4.715 2.61 -4.375 1.25 C-3.375 0.25 -3.375 0.25 0 0 Z " fill="#D0DCEB" transform="translate(162.375,88.75)"/>
<path d="M0 0 C2.4375 0.875 2.4375 0.875 4.4375 4.875 C10.3775 4.875 16.3175 4.875 22.4375 4.875 C22.4375 5.865 22.4375 6.855 22.4375 7.875 C21.17292969 7.91238281 19.90835938 7.94976562 18.60546875 7.98828125 C16.9452827 8.05393833 15.28512778 8.12038576 13.625 8.1875 C12.79162109 8.21005859 11.95824219 8.23261719 11.09960938 8.25585938 C10.29716797 8.29130859 9.49472656 8.32675781 8.66796875 8.36328125 C7.92957764 8.38946533 7.19118652 8.41564941 6.43041992 8.44262695 C3.95285754 8.98014539 3.17596673 10.09608306 1.4375 11.875 C-1.625 11.75 -1.625 11.75 -4.5625 10.875 C-6.5625 7.875 -6.5625 7.875 -6.375 4.8125 C-5.3211956 1.0025918 -4.02486774 -0.19633501 0 0 Z " fill="#D1D7E5" transform="translate(40.5625,115.125)"/>
<path d="M0 0 C0.66 0 1.32 0 2 0 C2.33 8.25 2.66 16.5 3 25 C2.01 25.33 1.02 25.66 0 26 C-1.35618499 27.12534105 -1.35618499 27.12534105 -1.0625 30.0625 C-1.041875 31.031875 -1.02125 32.00125 -1 33 C0.65 33.33 2.3 33.66 4 34 C4.66 32.02 5.32 30.04 6 28 C6.33 29.32 6.66 30.64 7 32 C7.99 32 8.98 32 10 32 C8.84826645 34.46800047 7.95216435 36.04783565 6 38 C2.99252622 38.33955349 0.90107722 38.55613536 -2 38 C-4.99097304 35.45767292 -5.84202557 33.8425303 -6.5625 30 C-6 27 -6 27 -3.515625 25.01953125 C0.21989634 20.53574554 -0.2201393 16.35585769 -0.1875 10.6875 C-0.16236328 9.66076172 -0.13722656 8.63402344 -0.11132812 7.57617188 C-0.05258915 5.050396 -0.01621288 2.52634772 0 0 Z " fill="#D0DAE6" transform="translate(91,138)"/>
<path d="M0 0 C2.5 0.25 2.5 0.25 4.5 2.25 C4.75 4.75 4.75 4.75 4.5 7.25 C3.84 7.91 3.18 8.57 2.5 9.25 C2.12864085 11.77037964 2.12864085 11.77037964 2.0859375 14.6953125 C2.04726562 15.77167969 2.00859375 16.84804688 1.96875 17.95703125 C1.9378125 19.08496094 1.906875 20.21289062 1.875 21.375 C1.83632812 22.51066406 1.79765625 23.64632812 1.7578125 24.81640625 C1.66332399 27.62743956 1.57776459 30.43846233 1.5 33.25 C0.51 33.25 -0.48 33.25 -1.5 33.25 C-1.51981934 32.53344238 -1.53963867 31.81688477 -1.56005859 31.07861328 C-1.65509519 27.8436937 -1.76486019 24.60943906 -1.875 21.375 C-1.92140625 19.68310547 -1.92140625 19.68310547 -1.96875 17.95703125 C-2.00742188 16.88066406 -2.04609375 15.80429687 -2.0859375 14.6953125 C-2.1173584 13.70031738 -2.1487793 12.70532227 -2.18115234 11.68017578 C-2.27247083 9.07145483 -2.27247083 9.07145483 -4.5 7.25 C-4.75 4.75 -4.75 4.75 -4.5 2.25 C-2.5 0.25 -2.5 0.25 0 0 Z " fill="#C6CFDF" transform="translate(105.5,31.75)"/>
<path d="M0 0 C1.32 0.66 2.64 1.32 4 2 C4 9.59 4 17.18 4 25 C3.67 25 3.34 25 3 25 C2.67 21.7 2.34 18.4 2 15 C1.34 15 0.68 15 0 15 C0 30.18 0 45.36 0 61 C-0.33 61 -0.66 61 -1 61 C-1 42.19 -1 23.38 -1 4 C-1.99 3.67 -2.98 3.34 -4 3 C-3 1 -3 1 0 0 Z " fill="#DEE4EF" transform="translate(128,69)"/>
<path d="M0 0 C0.33 0 0.66 0 1 0 C1 7.26 1 14.52 1 22 C3.475 22.99 3.475 22.99 6 24 C8.1519437 27.22791555 8.20086443 28.28400809 8 32 C7.38125 32.12375 6.7625 32.2475 6.125 32.375 C3.80879168 32.87197356 3.80879168 32.87197356 2 35 C-2.55555556 34.44444444 -2.55555556 34.44444444 -4 33 C-4.14636054 29.63370749 -4.07193479 27.21580438 -3 24 C-2.01 24 -1.02 24 0 24 C0 16.08 0 8.16 0 0 Z " fill="#C1CAD7" transform="translate(93,138)"/>
<path d="M0 0 C0.66 0 1.32 0 2 0 C2 3.63 2 7.26 2 11 C1.08476563 11.40089844 0.16953125 11.80179688 -0.7734375 12.21484375 C-7.56035708 15.14713329 -7.56035708 15.14713329 -12.30859375 20.46875 C-12.76313696 22.69565938 -13.02573899 24.72982115 -13 27 C-13.66 26.67 -14.32 26.34 -15 26 C-15.73075648 23.6859378 -16.40138258 21.35171131 -17 19 C-19.3015411 18.22197813 -19.3015411 18.22197813 -22 18 C-24.30504044 19.33153266 -24.30504044 19.33153266 -26 21 C-26.6875 19.1875 -26.6875 19.1875 -27 17 C-26 15.25 -26 15.25 -24 14 C-20.66899592 13.75325896 -17.85855834 13.7591503 -14.6328125 14.6640625 C-10.16470184 15.23417751 -7.13805986 13.1304193 -3.33984375 10.96875 C-0.62234284 8.68223838 -0.17039981 7.6048874 0.1875 4.125 C0.20307057 1.85627493 0.20307057 1.85627493 0 0 Z " fill="#CCDAEB" transform="translate(77,138)"/>
<path d="M0 0 C1.32 0.66 2.64 1.32 4 2 C4.19829282 5.43707561 4.34918804 8.17067842 3 11.375 C-0.11069251 13.90243766 -3.0431301 13.74053312 -7 14 C-6.34 12.68 -5.68 11.36 -5 10 C-5.99 9.67 -6.98 9.34 -8 9 C-8.125 6.125 -8.125 6.125 -8 3 C-6 1 -6 1 -3.4375 0.9375 C-2.2309375 0.9684375 -2.2309375 0.9684375 -1 1 C-0.67 0.67 -0.34 0.34 0 0 Z " fill="#D5DBE4" transform="translate(172,66)"/>
<path d="M0 0 C8.01869159 -0.77102804 8.01869159 -0.77102804 11.625 2.0625 C13.4158923 5.88849719 13.12046692 7.96631907 12 12 C10.9375 13.9375 10.9375 13.9375 9 15 C2.16788321 15.75912409 2.16788321 15.75912409 -1.5 13.375 C-3.37956836 10.39901677 -3.31424507 8.45669582 -3 5 C-2.01 5.33 -1.02 5.66 0 6 C0.33 7.65 0.66 9.3 1 11 C2.99954746 11.04254356 5.00041636 11.04080783 7 11 C8.28322547 9.9404123 8.28322547 9.9404123 8.125 7.5 C8.28322547 5.0595877 8.28322547 5.0595877 7 4 C4.32941149 3.85884839 1.67567762 3.95752893 -1 4 C-0.67 2.68 -0.34 1.36 0 0 Z " fill="#D4DCE6" transform="translate(157,129)"/>
<path d="M0 0 C4.0365015 1.48143766 6.46359507 3.26244322 9 6.75 C10.23427095 10.7613806 10.31358169 14.0435234 9 18 C7.16831486 20.9549485 5.1633409 23.41832955 2 25 C-2.24010376 25.6123733 -6.23981295 25.82646775 -10.1796875 23.9765625 C-13.73958962 21.30294306 -15.4140079 18.92311928 -16.125 14.5 C-16.2601723 10.26697261 -15.51943224 7.49469633 -13 4 C-8.68847354 0.27640896 -5.65818676 -0.79413148 0 0 Z M-13 7 C-14.53214888 10.06429776 -14.22938548 12.6165642 -14 16 C-12.20957902 20.14623807 -10.12768764 22.17613802 -6 24 C-2.01751003 24.5931368 -0.32359071 24.17424115 3.25 22.25 C7.11852888 19.08484 7.8001678 17.54156269 8.4375 12.625 C7.85406422 7.79081782 6.44960332 6.36937999 3 3 C-4.20606709 0.59797764 -7.87808104 1.87808104 -13 7 Z " fill="#5F687E" transform="translate(102,89)"/>
<path d="M0 0 C6.875 0.875 6.875 0.875 8 2 C8.04092937 4.33297433 8.04241723 6.66705225 8 9 C6.02 9.99 6.02 9.99 4 11 C4 14.3 4 17.6 4 21 C3.34 21 2.68 21 2 21 C2 17.7 2 14.4 2 11 C0.68 10.34 -0.64 9.68 -2 9 C-2.9375 6.625 -2.9375 6.625 -3 4 C-1.5625 1.6875 -1.5625 1.6875 0 0 Z " fill="#DCE5F0" transform="translate(76,44)"/>
<path d="M0 0 C1.875 1.125 1.875 1.125 3 3 C3.39365568 6.14924548 3.52854531 8.11909116 1.875 10.875 C-0.88090884 12.52854531 -2.85075452 12.39365568 -6 12 C-7.875 10.875 -7.875 10.875 -9 9 C-9.39365568 5.85075452 -9.52854531 3.88090884 -7.875 1.125 C-5.11909116 -0.52854531 -3.14924548 -0.39365568 0 0 Z " fill="#919BAF" transform="translate(102,96)"/>
<path d="M0 0 C0.83265381 0.00523682 1.66530762 0.01047363 2.52319336 0.01586914 C3.42231445 0.0190918 4.32143555 0.02231445 5.24780273 0.02563477 C6.66609375 0.03820312 6.66609375 0.03820312 8.11303711 0.05102539 C9.06243164 0.05553711 10.01182617 0.06004883 10.98999023 0.06469727 C13.34356776 0.07652429 15.69702188 0.09300514 18.05053711 0.11352539 C18.05053711 0.44352539 18.05053711 0.77352539 18.05053711 1.11352539 C12.11053711 1.44352539 6.17053711 1.77352539 0.05053711 2.11352539 C0.05053711 2.44352539 0.05053711 2.77352539 0.05053711 3.11352539 C1.16428711 2.80415039 1.16428711 2.80415039 2.30053711 2.48852539 C5.37384552 2.06943788 6.47840576 2.49403528 9.05053711 4.11352539 C6.41053711 4.11352539 3.77053711 4.11352539 1.05053711 4.11352539 C1.05053711 13.02352539 1.05053711 21.93352539 1.05053711 31.11352539 C0.72053711 31.11352539 0.39053711 31.11352539 0.05053711 31.11352539 C-0.02293945 30.15639648 -0.02293945 30.15639648 -0.09790039 29.17993164 C-0.17266602 28.35364258 -0.24743164 27.52735352 -0.32446289 26.67602539 C-0.39407227 25.85231445 -0.46368164 25.02860352 -0.53540039 24.17993164 C-0.67204102 23.49801758 -0.80868164 22.81610352 -0.94946289 22.11352539 C-1.60946289 21.78352539 -2.26946289 21.45352539 -2.94946289 21.11352539 C-2.97834436 17.80104352 -2.99622088 14.48859372 -3.01196289 11.17602539 C-3.0203418 10.23049805 -3.0287207 9.2849707 -3.03735352 8.31079102 C-3.04057617 7.41166992 -3.04379883 6.51254883 -3.04711914 5.58618164 C-3.05235596 4.75352783 -3.05759277 3.92087402 -3.06298828 3.06298828 C-2.90876673 0.41468917 -2.64829911 0.15422155 0 0 Z " fill="#E2E6EF" transform="translate(69.949462890625,68.886474609375)"/>
<path d="M0 0 C2.97 0.495 2.97 0.495 6 1 C6.625 3.3125 6.625 3.3125 7 6 C6.01 7.485 6.01 7.485 5 9 C1.875 9.1875 1.875 9.1875 -1 9 C-1.33 8.01 -1.66 7.02 -2 6 C-7.28 6 -12.56 6 -18 6 C-18 5.34 -18 4.68 -18 4 C-12.72 4 -7.44 4 -2 4 C-1.34 2.68 -0.68 1.36 0 0 Z " fill="#D1DBEA" transform="translate(153,103)"/>
<path d="M0 0 C0.66 0 1.32 0 2 0 C2 4.95 2 9.9 2 15 C2.99 15.33 3.98 15.66 5 16 C5.125 18.875 5.125 18.875 5 22 C4.34 22.66 3.68 23.32 3 24 C-0.29714793 23.67028521 -1.6226839 23.3773161 -4 21 C-3.75 17.9375 -3.75 17.9375 -3 15 C-2.34 14.67 -1.68 14.34 -1 14 C-0.52998967 10.72444392 -0.52998967 10.72444392 -0.375 6.9375 C-0.30023438 5.64714844 -0.22546875 4.35679687 -0.1484375 3.02734375 C-0.09945312 2.02832031 -0.05046875 1.02929688 0 0 Z " fill="#D4DDEE" transform="translate(105,138)"/>
<path d="M0 0 C2.4375 1.8125 2.4375 1.8125 4 4 C4 4.99 4 5.98 4 7 C3.443125 6.690625 2.88625 6.38125 2.3125 6.0625 C-0.17219278 4.9208844 -2.27998821 4.28631703 -5 4 C-5.66 4.66 -6.32 5.32 -7 6 C-6.98333671 8.50324332 -6.98333671 8.50324332 -6 11 C-4.0431712 12.82337753 -4.0431712 12.82337753 -2 14 C-3 15 -3 15 -5.375 15.25 C-8 15 -8 15 -9.8125 14 C-11.71413291 10.79724984 -11.63118769 7.56477592 -11 4 C-8.16250305 -0.53999512 -5.10870514 -0.72981502 0 0 Z " fill="#D8DFEB" transform="translate(87,24)"/>
<path d="M0 0 C18.48 0 36.96 0 56 0 C56 6.27 56 12.54 56 19 C55.67 19 55.34 19 55 19 C55 14.05 55 9.1 55 4 C54.34 4 53.68 4 53 4 C53 4.99 53 5.98 53 7 C51.68 7 50.36 7 49 7 C49.3125 5.0625 49.3125 5.0625 50 3 C50.99 2.67 51.98 2.34 53 2 C35.51 1.67 18.02 1.34 0 1 C0 0.67 0 0.34 0 0 Z " fill="#AAB2C3" transform="translate(71,73)"/>
<path d="M0 0 C0.78375 0.04125 1.5675 0.0825 2.375 0.125 C3.035 1.445 3.695 2.765 4.375 4.125 C7.675 4.125 10.975 4.125 14.375 4.125 C14.375 4.785 14.375 5.445 14.375 6.125 C13.67632812 6.17398438 12.97765625 6.22296875 12.2578125 6.2734375 C11.34773438 6.34820312 10.43765625 6.42296875 9.5 6.5 C8.14261719 6.60441406 8.14261719 6.60441406 6.7578125 6.7109375 C4.19558097 6.92068132 4.19558097 6.92068132 2.375 9.125 C-0.125 9.375 -0.125 9.375 -2.625 9.125 C-4.625 7.125 -4.625 7.125 -4.875 4.625 C-4.51649553 1.03995533 -3.59522993 0.17120143 0 0 Z " fill="#D3DAE8" transform="translate(48.625,102.875)"/>
<path d="M0 0 C0.66 0 1.32 0 2 0 C2.00257812 1.22976562 2.00515625 2.45953125 2.0078125 3.7265625 C2.04534924 5.35941079 2.08449699 6.9922226 2.125 8.625 C2.12242188 9.43324219 2.11984375 10.24148437 2.1171875 11.07421875 C2.26620325 15.65645317 2.68718106 18.20429547 6.0546875 21.4609375 C7.02664062 22.29882812 7.99859375 23.13671875 9 24 C9 24.66 9 25.32 9 26 C9.66 26 10.32 26 11 26 C10.25 30.75 10.25 30.75 8 33 C7.979375 31.989375 7.95875 30.97875 7.9375 29.9375 C7.61394985 27.36426524 7.39596623 26.33028914 5.375 24.64453125 C4.735625 24.18433594 4.09625 23.72414062 3.4375 23.25 C1.18215042 21.27541843 0.12425381 19.82248602 -0.32714844 16.83447266 C-0.62776593 11.21160902 -0.35337524 5.61473994 0 0 Z " fill="#D8E5F9" transform="translate(119,138)"/>
<path d="M0 0 C0.64545776 1.00788574 0.64545776 1.00788574 1.30395508 2.03613281 C3.39811312 2.83237103 3.39811312 2.83237103 5.30395508 3.03613281 C5.30395508 4.02613281 5.30395508 5.01613281 5.30395508 6.03613281 C0.78675197 6.40239252 0.78675197 6.40239252 -1.50854492 4.66113281 C-2.69604492 3.03613281 -2.69604492 3.03613281 -2.69604492 1.03613281 C-9.95604492 1.03613281 -17.21604492 1.03613281 -24.69604492 1.03613281 C-24.69604492 0.37613281 -24.69604492 -0.28386719 -24.69604492 -0.96386719 C-20.92694568 -1.24745256 -17.15632736 -1.48494166 -13.38354492 -1.71386719 C-11.77576172 -1.83568359 -11.77576172 -1.83568359 -10.13549805 -1.95996094 C-9.1074707 -2.01796875 -8.07944336 -2.07597656 -7.02026367 -2.13574219 C-5.59846802 -2.23000488 -5.59846802 -2.23000488 -4.14794922 -2.32617188 C-1.69604492 -1.96386719 -1.69604492 -1.96386719 0 0 Z " fill="#D9E1EE" transform="translate(159.696044921875,94.9638671875)"/>
<path d="M0 0 C2.5 -0.3125 2.5 -0.3125 5 0 C7 2 7 2 7.25 4.5 C7 7 7 7 5 9 C1.875 8.625 1.875 8.625 -1 8 C-1.625 5.6875 -1.625 5.6875 -2 3 C-1.34 2.01 -0.68 1.02 0 0 Z " fill="#43587C" transform="translate(159,132)"/>
<path d="M0 0 C3.375 -0.1875 3.375 -0.1875 7 0 C7.66 0.99 8.32 1.98 9 3 C7.02 5.97 7.02 5.97 5 9 C3.68 8.67 2.36 8.34 1 8 C0.67 6.68 0.34 5.36 0 4 C-0.66 4 -1.32 4 -2 4 C-1.34 2.68 -0.68 1.36 0 0 Z " fill="#CDDAE5" transform="translate(29,89)"/>
<path d="M0 0 C4.55555556 0.55555556 4.55555556 0.55555556 6 2 C6.1875 4.4375 6.1875 4.4375 6 7 C4 9 4 9 1.5 9.3125 C0.2625 9.1578125 0.2625 9.1578125 -1 9 C-3 6 -3 6 -2.75 3.9375 C-2 2 -2 2 0 0 Z " fill="#4B5D78" transform="translate(30,59)"/>
<path d="M0 0 C4.55555556 0.55555556 4.55555556 0.55555556 6 2 C6.1875 4.4375 6.1875 4.4375 6 7 C4 9 4 9 1.5 9.25 C-1 9 -1 9 -3 7 C-2.67028521 3.70285207 -2.3773161 2.3773161 0 0 Z " fill="#44587C" transform="translate(82,27)"/>
<path d="M0 0 C3 0.125 3 0.125 4 1.125 C4.1875 4.0625 4.1875 4.0625 4 7.125 C3.34 7.785 2.68 8.445 2 9.125 C-2.55555556 8.56944444 -2.55555556 8.56944444 -4 7.125 C-4.125 4.125 -4.125 4.125 -4 1.125 C-3 0.125 -3 0.125 0 0 Z " fill="#35517B" transform="translate(93,163.875)"/>
<path d="M0 0 C4.55555556 0.55555556 4.55555556 0.55555556 6 2 C6.125 5 6.125 5 6 8 C5 9 5 9 2 9.125 C-1 9 -1 9 -2 8 C-2.1875 5.0625 -2.1875 5.0625 -2 2 C-1.34 1.34 -0.68 0.68 0 0 Z " fill="#4F5E7C" transform="translate(55,155)"/>
<path d="M0 0 C4.55555556 0.55555556 4.55555556 0.55555556 6 2 C6.125 5 6.125 5 6 8 C5 9 5 9 2 9.125 C-1 9 -1 9 -2 8 C-2.1875 5.0625 -2.1875 5.0625 -2 2 C-1.34 1.34 -0.68 0.68 0 0 Z " fill="#44587F" transform="translate(166,67)"/>
<path d="M0 0 C0.33 0.99 0.66 1.98 1 3 C1.99 3 2.98 3 4 3 C4 6.3 4 9.6 4 13 C3.34 12.67 2.68 12.34 2 12 C1.26924352 9.6859378 0.59861742 7.35171131 0 5 C-2.3015411 4.22197813 -2.3015411 4.22197813 -5 4 C-7.30504044 5.33153266 -7.30504044 5.33153266 -9 7 C-9.6875 5.1875 -9.6875 5.1875 -10 3 C-7.70195295 -1.02158234 -4.18378338 -0.23681793 0 0 Z " fill="#E0E4EC" transform="translate(60,152)"/>
<path d="M0 0 C0.66 0.33 1.32 0.66 2 1 C2.33 2.65 2.66 4.3 3 6 C11.25 6 19.5 6 28 6 C28 6.33 28 6.66 28 7 C27.31897217 7.02505615 26.63794434 7.0501123 25.9362793 7.07592773 C22.85316245 7.19190952 19.77034954 7.31462616 16.6875 7.4375 C15.61564453 7.47681641 14.54378906 7.51613281 13.43945312 7.55664062 C12.41142578 7.59853516 11.38339844 7.64042969 10.32421875 7.68359375 C9.37635498 7.72025146 8.42849121 7.75690918 7.4519043 7.79467773 C4.863829 7.91430187 4.863829 7.91430187 2 9 C2 9.66 2 10.32 2 11 C2.66 11.33 3.32 11.66 4 12 C1.3333581 13.33332095 -0.16680303 12.67102033 -3 12 C-1.68 11.67 -0.36 11.34 1 11 C1 10.34 1 9.68 1 9 C0.34 8.67 -0.32 8.34 -1 8 C-0.34 8 0.32 8 1 8 C0.67 5.36 0.34 2.72 0 0 Z " fill="#536584" transform="translate(34,77)"/>
<path d="M0 0 C0 0.99 0 1.98 0 3 C-0.66 2.67 -1.32 2.34 -2 2 C-1.34 1.34 -0.68 0.68 0 0 Z M-15 3 C-10.71 3 -6.42 3 -2 3 C-2 3.33 -2 3.66 -2 4 C-5.3 4.66 -8.6 5.32 -12 6 C-12 12.27 -12 18.54 -12 25 C-12.33 25 -12.66 25 -13 25 C-13.33 18.73 -13.66 12.46 -14 6 C-14.99 6.33 -15.98 6.66 -17 7 C-16.34 5.68 -15.68 4.36 -15 3 Z " fill="#4F6183" transform="translate(131,132)"/>
<path d="M0 0 C8.25 0.33 16.5 0.66 25 1 C25 1.66 25 2.32 25 3 C16.75 3 8.5 3 0 3 C0 2.01 0 1.02 0 0 Z " fill="#DCE6F7" transform="translate(37,80)"/>
<path d="M0 0 C0.33 0.99 0.66 1.98 1 3 C0.15115234 3.38478516 0.15115234 3.38478516 -0.71484375 3.77734375 C-5.29947004 6.07035345 -5.29947004 6.07035345 -7.75390625 10.3359375 C-7.97714047 12.58245333 -8.07861283 14.74479446 -8 17 C-8.66 17 -9.32 17 -10 17 C-10.6130421 13.17189265 -10.88536511 9.79665393 -10 6 C-7.00645738 3.22178237 -3.74330246 1.58421908 0 0 Z " fill="#CDDCE5" transform="translate(128,48)"/>
<path d="M0 0 C0.33 0 0.66 0 1 0 C0.96519531 1.06927734 0.96519531 1.06927734 0.9296875 2.16015625 C0.82184326 7.88360394 1.07942689 12.59838814 3 18 C2.01 18.33 1.02 18.66 0 19 C-0.66 16.03 -1.32 13.06 -2 10 C-3.65 10 -5.3 10 -7 10 C-7 9.67 -7 9.34 -7 9 C-5.35 9 -3.7 9 -2 9 C-2.33 8.01 -2.66 7.02 -3 6 C-2.34 5.34 -1.68 4.68 -1 4 C-0.3574765 1.93125966 -0.3574765 1.93125966 0 0 Z " fill="#CAD0D8" transform="translate(36,62)"/>
<path d="M0 0 C0.66 0 1.32 0 2 0 C2.66 1.32 3.32 2.64 4 4 C6.38564077 3.42415568 8.66682784 2.77772405 11 2 C11.33 2.66 11.66 3.32 12 4 C8.730187 7.87533393 8.730187 7.87533393 5.4375 8.4375 C3 8 3 8 1.1875 6.8125 C-0.36678206 4.44017475 -0.22537188 2.77958655 0 0 Z " fill="#D4E1EF" transform="translate(27,93)"/>
<path d="M0 0 C0.99 0.33 1.98 0.66 3 1 C3 1.66 3 2.32 3 3 C6.3 3 9.6 3 13 3 C13 3.66 13 4.32 13 5 C11.95199219 5.07347656 11.95199219 5.07347656 10.8828125 5.1484375 C9.97273438 5.22320312 9.06265625 5.29796875 8.125 5.375 C6.76761719 5.47941406 6.76761719 5.47941406 5.3828125 5.5859375 C2.82058097 5.79568132 2.82058097 5.79568132 1 8 C-1.125 7.625 -1.125 7.625 -3 7 C-2.34 6.67 -1.68 6.34 -1 6 C-0.34227572 2.97065509 -0.34227572 2.97065509 0 0 Z " fill="#DDE5F4" transform="translate(50,104)"/>
<path d="M0 0 C0 7.59 0 15.18 0 23 C-0.33 23 -0.66 23 -1 23 C-1.33 16.73 -1.66 10.46 -2 4 C-2.66 3.67 -3.32 3.34 -4 3 C-3.34 2.01 -2.68 1.02 -2 0 C-4.64 0 -7.28 0 -10 0 C-10 -0.33 -10 -0.66 -10 -1 C-5.46625958 -2.03039555 -4.35532149 -2.17766075 0 0 Z " fill="#3C5071" transform="translate(91,41)"/>
<path d="M0 0 C0.78375 0.04125 1.5675 0.0825 2.375 0.125 C1.385 0.455 0.395 0.785 -0.625 1.125 C-0.625 1.785 -0.625 2.445 -0.625 3.125 C0.365 3.455 1.355 3.785 2.375 4.125 C2.045 5.445 1.715 6.765 1.375 8.125 C-1.1 7.135 -1.1 7.135 -3.625 6.125 C-4.285 6.785 -4.945 7.445 -5.625 8.125 C-4.59375 0.21875 -4.59375 0.21875 0 0 Z " fill="#A0ABBD" transform="translate(78.625,43.875)"/>
<path d="M0 0 C2 1 2 1 3 3 C1.576875 3.61875 1.576875 3.61875 0.125 4.25 C-3.23631566 6.13233677 -3.43200725 6.75948165 -5 10 C-7.625 11.25 -7.625 11.25 -10 12 C-8.62968895 6.34746692 -4.32310587 3.4886459 0 0 Z " fill="#D2DAE3" transform="translate(88,81)"/>
<path d="M0 0 C3.25696479 0.41755959 4.63443291 0.63443291 7 3 C7.125 6.125 7.125 6.125 7 9 C5.02 9.99 5.02 9.99 3 11 C3.0825 9.906875 3.165 8.81375 3.25 7.6875 C3.41103961 3.96557142 3.41103961 3.96557142 1 2.0625 C0.34 1.711875 -0.32 1.36125 -1 1 C-0.67 0.67 -0.34 0.34 0 0 Z " fill="#DCE4EE" transform="translate(135,40)"/>
<path d="M0 0 C0 5.94 0 11.88 0 18 C-0.33 18 -0.66 18 -1 18 C-1 13.05 -1 8.1 -1 3 C-1.66 3 -2.32 3 -3 3 C-3 3.99 -3 4.98 -3 6 C-4.32 6 -5.64 6 -7 6 C-6.75 4.125 -6.75 4.125 -6 2 C-3.85331506 0.61504198 -2.56128588 0 0 0 Z " fill="#7787A1" transform="translate(127,74)"/>
<path d="M0 0 C0.99 0 1.98 0 3 0 C2.125 5.875 2.125 5.875 1 7 C-0.99958364 7.04080783 -3.00045254 7.04254356 -5 7 C-5.33 6.01 -5.66 5.02 -6 4 C-4.35 4 -2.7 4 -1 4 C-0.67 2.68 -0.34 1.36 0 0 Z " fill="#D4DCE6" transform="translate(157,105)"/>
<path d="M0 0 C0.66 0.99 1.32 1.98 2 3 C1.67 3.66 1.34 4.32 1 5 C-9.55808656 5.18451025 -9.55808656 5.18451025 -14 4 C-14 3.67 -14 3.34 -14 3 C-13.15695313 2.86722656 -12.31390625 2.73445313 -11.4453125 2.59765625 C-10.34960938 2.42105469 -9.25390625 2.24445313 -8.125 2.0625 C-6.48917969 1.80146484 -6.48917969 1.80146484 -4.8203125 1.53515625 C-2.06178454 1.14448841 -2.06178454 1.14448841 0 0 Z " fill="#4E6187" transform="translate(110,121)"/>
<path d="M0 0 C0.33 0.66 0.66 1.32 1 2 C1.99 1.34 2.98 0.68 4 0 C6.1875 0.375 6.1875 0.375 8 1 C7.67 1.99 7.34 2.98 7 4 C5.35 3.67 3.7 3.34 2 3 C2 3.66 2 4.32 2 5 C2.99 5 3.98 5 5 5 C5 5.66 5 6.32 5 7 C5.99 7.33 6.98 7.66 8 8 C5.125 7.6875 5.125 7.6875 2 7 C0 4 0 4 0 0 Z " fill="#93A1B4" transform="translate(34,119)"/>
<path d="M0 0 C0.99 0.33 1.98 0.66 3 1 C3.125 3.875 3.125 3.875 3 7 C2.34 7.66 1.68 8.32 1 9 C-1.125 8.625 -1.125 8.625 -3 8 C-2.34 8 -1.68 8 -1 8 C-1.33 6.02 -1.66 4.04 -2 2 C-1.34 2 -0.68 2 0 2 C0 1.34 0 0.68 0 0 Z " fill="#C2C9D5" transform="translate(107,153)"/>
<path d="M0 0 C0.33 0.66 0.66 1.32 1 2 C-0.6875 4.5 -0.6875 4.5 -3 7 C-5.75 7.3125 -5.75 7.3125 -8 7 C-8.33 6.34 -8.66 5.68 -9 5 C-9.99 4.67 -10.98 4.34 -12 4 C-12 3.34 -12 2.68 -12 2 C-11.30132812 2.02320312 -10.60265625 2.04640625 -9.8828125 2.0703125 C-8.51769531 2.09738281 -8.51769531 2.09738281 -7.125 2.125 C-6.22007813 2.14820312 -5.31515625 2.17140625 -4.3828125 2.1953125 C-1.81193006 2.24324836 -1.81193006 2.24324836 0 0 Z " fill="#E2E7E9" transform="translate(106,105)"/>
<path d="M0 0 C2.04119788 1.61594832 4.04072937 3.2856382 6 5 C6 5.66 6 6.32 6 7 C6.66 7 7.32 7 8 7 C7.25 11.75 7.25 11.75 5 14 C4.87625 12.39125 4.87625 12.39125 4.75 10.75 C3.927 6.63499999 3.0058238 5.71493763 0 3 C0 2.01 0 1.02 0 0 Z " fill="#D0DCED" transform="translate(122,157)"/>
<path d="M0 0 C0.99 0.33 1.98 0.66 3 1 C3.73046875 2.84765625 3.73046875 2.84765625 4.1875 5.0625 C4.34605469 5.79597656 4.50460938 6.52945313 4.66796875 7.28515625 C4.83232422 8.13400391 4.83232422 8.13400391 5 9 C3.68 9.99 2.36 10.98 1 12 C0.34 11.34 -0.32 10.68 -1 10 C-0.67 9.34 -0.34 8.68 0 8 C0.0689472 6.62657169 0.08467708 5.24997898 0.0625 3.875 C0.041875 2.59625 0.02125 1.3175 0 0 Z " fill="#475A7F" transform="translate(138,163)"/>
<path d="M0 0 C1.485 0.99 1.485 0.99 3 2 C3.34057617 4.52197266 3.34057617 4.52197266 3.29296875 7.6640625 C3.28330078 8.78554688 3.27363281 9.90703125 3.26367188 11.0625 C3.23853516 12.238125 3.21339844 13.41375 3.1875 14.625 C3.17396484 15.80835938 3.16042969 16.99171875 3.14648438 18.2109375 C3.11103916 21.14107539 3.06162769 24.07031459 3 27 C2.67 27 2.34 27 2 27 C1.97494385 26.32420898 1.9498877 25.64841797 1.92407227 24.95214844 C1.80789258 21.8845832 1.68526563 18.81730842 1.5625 15.75 C1.52318359 14.68652344 1.48386719 13.62304688 1.44335938 12.52734375 C1.40146484 11.50253906 1.35957031 10.47773437 1.31640625 9.421875 C1.27974854 8.47924805 1.24309082 7.53662109 1.20532227 6.56542969 C1.02060772 4.25748623 0.64138388 2.21859476 0 0 Z " fill="#DBE5F6" transform="translate(90,38)"/>
<path d="M0 0 C2 4 2 4 2 7 C1.34 7 0.68 7 0 7 C0 7.99 0 8.98 0 10 C-1.32 9.34 -2.64 8.68 -4 8 C-2.68 5.36 -1.36 2.72 0 0 Z " fill="#3F5780" transform="translate(100,35)"/>
<path d="M0 0 C2.0625 0.4375 2.0625 0.4375 4 1 C3.67 2.65 3.34 4.3 3 6 C1.35 5.67 -0.3 5.34 -2 5 C-1.125 1.125 -1.125 1.125 0 0 Z " fill="#4E5E80" transform="translate(132,165)"/>
<path d="M0 0 C1.67542976 0.28604898 3.34385343 0.61781233 5 1 C4.67 2.32 4.34 3.64 4 5 C2.68 5.33 1.36 5.66 0 6 C-0.38218767 4.34385343 -0.71395102 2.67542976 -1 1 C-0.67 0.67 -0.34 0.34 0 0 Z " fill="#505E7B" transform="translate(161,92)"/>
<path d="M0 0 C1.67542976 0.28604898 3.34385343 0.61781233 5 1 C4.67 2.65 4.34 4.3 4 6 C2.68 5.67 1.36 5.34 0 5 C-0.5625 3.0625 -0.5625 3.0625 -1 1 C-0.67 0.67 -0.34 0.34 0 0 Z " fill="#4E5E7D" transform="translate(134,43)"/>
<path d="M0 0 C0.33 1.32 0.66 2.64 1 4 C1.99 4 2.98 4 4 4 C2.84826645 6.46800047 1.95216435 8.04783565 0 10 C-0.99 10 -1.98 10 -3 10 C-2.01 6.7 -1.02 3.4 0 0 Z " fill="#CDD3E0" transform="translate(97,166)"/>
<path d="M0 0 C0.33 0 0.66 0 1 0 C1.03738281 1.02480469 1.07476562 2.04960937 1.11328125 3.10546875 C1.17897079 4.46618062 1.24541709 5.82685611 1.3125 7.1875 C1.33505859 7.86103516 1.35761719 8.53457031 1.38085938 9.22851562 C1.61595554 13.60985323 2.42442686 16.44391376 5 20 C4.01 20 3.02 20 2 20 C0 18 0 18 -0.22705078 16.12060547 C-0.21657715 15.37697754 -0.20610352 14.63334961 -0.1953125 13.8671875 C-0.18886719 13.06152344 -0.18242188 12.25585938 -0.17578125 11.42578125 C-0.15064453 10.16314453 -0.15064453 10.16314453 -0.125 8.875 C-0.11597656 8.02550781 -0.10695313 7.17601562 -0.09765625 6.30078125 C-0.07405647 4.20040116 -0.03818483 2.10016556 0 0 Z " fill="#455673" transform="translate(121,138)"/>
<path d="M0 0 C0.66 0.99 1.32 1.98 2 3 C-1.00617269 6.00617269 -3.82381598 5.59585316 -8 6 C-5.51047079 3.33264727 -3.36591866 1.44253657 0 0 Z " fill="#43587E" transform="translate(158,77)"/>
<path d="M0 0 C-0.99 0.495 -0.99 0.495 -2 1 C-2 1.66 -2 2.32 -2 3 C-3.98 3.66 -5.96 4.32 -8 5 C-7.625 2.5625 -7.625 2.5625 -7 0 C-4.3333581 -1.33332095 -2.83319697 -0.67102033 0 0 Z " fill="#D1D9E5" transform="translate(43,116)"/>
<path d="M0 0 C2.0625 0.4375 2.0625 0.4375 4 1 C4 2.32 4 3.64 4 5 C2.68 5.33 1.36 5.66 0 6 C-0.38218767 4.34385343 -0.71395102 2.67542976 -1 1 C-0.67 0.67 -0.34 0.34 0 0 Z " fill="#4F5978" transform="translate(31,92)"/>
<path d="M0 0 C1.98 0 3.96 0 6 0 C6.33 1.32 6.66 2.64 7 4 C4.69 4 2.38 4 0 4 C0 2.68 0 1.36 0 0 Z " fill="#35517A" transform="translate(53,158)"/>
<path d="M0 0 C-0.33 0.66 -0.66 1.32 -1 2 C-2.65 1.67 -4.3 1.34 -6 1 C-5.67 1.99 -5.34 2.98 -5 4 C-6.32 4.99 -7.64 5.98 -9 7 C-9.6875 5.1875 -9.6875 5.1875 -10 3 C-7.70195295 -1.02158234 -4.18378338 -0.23681793 0 0 Z " fill="#D5DEEE" transform="translate(60,152)"/>
<path d="M0 0 C2.64 0 5.28 0 8 0 C7.67 0.99 7.34 1.98 7 3 C4.36 3.33 1.72 3.66 -1 4 C-0.67 2.68 -0.34 1.36 0 0 Z " fill="#DEE4F0" transform="translate(157,129)"/>
<path d="M0 0 C7.42857143 -0.28571429 7.42857143 -0.28571429 11 2 C9.68 2 8.36 2 7 2 C7 2.66 7 3.32 7 4 C5.68 4.33 4.36 4.66 3 5 C3 4.01 3 3.02 3 2 C2.01 1.34 1.02 0.68 0 0 Z " fill="#D0D6DA" transform="translate(96,114)"/>
<path d="M0 0 C1.32 0.66 2.64 1.32 4 2 C4 2.66 4 3.32 4 4 C4.66 4.33 5.32 4.66 6 5 C5.34 5 4.68 5 4 5 C4 5.66 4 6.32 4 7 C2.0625 6.1875 2.0625 6.1875 0 5 C-0.33 4.01 -0.66 3.02 -1 2 C-0.67 1.34 -0.34 0.68 0 0 Z " fill="#445C81" transform="translate(91,34)"/>
<path d="M0 0 C0.66 0.33 1.32 0.66 2 1 C2.125 3.875 2.125 3.875 2 7 C1.34 7.66 0.68 8.32 0 9 C-2.125 8.625 -2.125 8.625 -4 8 C-3.34 8 -2.68 8 -2 8 C-1.34 5.36 -0.68 2.72 0 0 Z " fill="#4C5F83" transform="translate(95,164)"/>
<path d="M0 0 C1.485 0.99 1.485 0.99 3 2 C4.9896995 2.39013716 6.99019869 2.73202649 9 3 C9 3.33 9 3.66 9 4 C6.69 4 4.38 4 2 4 C2.33 5.98 2.66 7.96 3 10 C1.68 9.34 0.36 8.68 -1 8 C-0.835 7.236875 -0.67 6.47375 -0.5 5.6875 C0.09145396 2.96403764 0.09145396 2.96403764 0 0 Z " fill="#C1CAD9" transform="translate(155,125)"/>
<path d="M0 0 C0.33 0 0.66 0 1 0 C1.33 2.64 1.66 5.28 2 8 C-0.31 8.66 -2.62 9.32 -5 10 C-5.66 9.34 -6.32 8.68 -7 8 C-6.030625 7.608125 -5.06125 7.21625 -4.0625 6.8125 C-0.77823609 5.32405113 -0.77823609 5.32405113 -0.125 2.3125 C-0.08375 1.549375 -0.0425 0.78625 0 0 Z " fill="#CAD9E9" transform="translate(160,69)"/>
<path d="M0 0 C2.31 0.33 4.62 0.66 7 1 C5.02579865 3.52259061 4.03254358 3.9929808 0.8125 4.6875 C-0.5796875 4.8421875 -0.5796875 4.8421875 -2 5 C-1.34 3.35 -0.68 1.7 0 0 Z " fill="#DDE4E9" transform="translate(166,64)"/>
<path d="M0 0 C1.65 0 3.3 0 5 0 C4.01 1.485 4.01 1.485 3 3 C3.33 3.99 3.66 4.98 4 6 C3.01 6 2.02 6 1 6 C1 5.34 1 4.68 1 4 C0.01 4 -0.98 4 -2 4 C-1.34 2.68 -0.68 1.36 0 0 Z " fill="#BEC3CD" transform="translate(103,32)"/>
<path d="M0 0 C0.33 0 0.66 0 1 0 C1.12375 1.093125 1.2475 2.18625 1.375 3.3125 C1.75464801 7.07381802 1.75464801 7.07381802 4 10 C4.125 12.6875 4.125 12.6875 4 15 C2 14 2 14 0.875 11.4375 C-0.14837318 7.41710538 -0.14258282 4.13490187 0 0 Z " fill="#C8D2E1" transform="translate(76,98)"/>
<path d="M0 0 C2.4375 0.8125 2.4375 0.8125 5 2 C5.33 2.99 5.66 3.98 6 5 C0.46153846 5.36923077 0.46153846 5.36923077 -1.875 3.5 C-2.24625 3.005 -2.6175 2.51 -3 2 C-2.01 2 -1.02 2 0 2 C0 1.34 0 0.68 0 0 Z " fill="#D0D8E3" transform="translate(133,47)"/>
<path d="M0 0 C0.99 0 1.98 0 3 0 C3 1.65 3 3.3 3 5 C-1.29 4.67 -5.58 4.34 -10 4 C-10 3.67 -10 3.34 -10 3 C-6.7 3 -3.4 3 0 3 C0 2.01 0 1.02 0 0 Z " fill="#50637F" transform="translate(63,106)"/>
<path d="M0 0 C1.65 0.33 3.3 0.66 5 1 C4.34 2.32 3.68 3.64 3 5 C1.68 4.34 0.36 3.68 -1 3 C-0.67 2.01 -0.34 1.02 0 0 Z " fill="#9199A6" transform="translate(97,100)"/>
<path d="M0 0 C0.99 0.33 1.98 0.66 3 1 C3 3.64 3 6.28 3 9 C2.34 9 1.68 9 1 9 C1 8.34 1 7.68 1 7 C0.34 6.67 -0.32 6.34 -1 6 C-0.67 4.02 -0.34 2.04 0 0 Z " fill="#3E5682" transform="translate(62,81)"/>
<path d="M0 0 C0.99 0 1.98 0 3 0 C3.66 2.31 4.32 4.62 5 7 C4.01 7.33 3.02 7.66 2 8 C1.34 5.36 0.68 2.72 0 0 Z " fill="#C7D0E6" transform="translate(34,73)"/>
<path d="M0 0 C0.25 5.625 0.25 5.625 -2 9 C-2.66 9 -3.32 9 -4 9 C-3.4140625 2.84765625 -3.4140625 2.84765625 -3 1 C-1 0 -1 0 0 0 Z " fill="#D4DDE7" transform="translate(40,61)"/>
<path d="M0 0 C0.598125 0.78375 1.19625 1.5675 1.8125 2.375 C3.91085249 5.14574323 3.91085249 5.14574323 7 7 C4.125 7.125 4.125 7.125 1 7 C0.34 6.34 -0.32 5.68 -1 5 C-0.625 2.375 -0.625 2.375 0 0 Z " fill="#E0E4F0" transform="translate(129,167)"/>
<path d="M0 0 C1.32 0.66 2.64 1.32 4 2 C3.67 3.65 3.34 5.3 3 7 C2.34 6.34 1.68 5.68 1 5 C0.34 5.99 -0.32 6.98 -1 8 C-1.125 2.25 -1.125 2.25 0 0 Z " fill="#CCD3E1" transform="translate(86,163)"/>
<path d="M0 0 C2.475 0.495 2.475 0.495 5 1 C5.33 2.65 5.66 4.3 6 6 C3.37812506 4.95125002 2.20628639 4.35068687 0.75 1.875 C0.5025 1.25625 0.255 0.6375 0 0 Z " fill="#DBE2F0" transform="translate(85,25)"/>
<path d="M0 0 C0.66 0.33 1.32 0.66 2 1 C1.1875 4.4375 1.1875 4.4375 0 8 C-0.99 8.33 -1.98 8.66 -3 9 C-2.44271087 5.65626525 -1.64826111 2.96687001 0 0 Z " fill="#BEC4C9" transform="translate(49,103)"/>
<path d="M0 0 C1.32 0.66 2.64 1.32 4 2 C3.67 2.99 3.34 3.98 3 5 C0.9375 5.6875 0.9375 5.6875 -1 6 C-1.042721 4.33388095 -1.04063832 2.66617115 -1 1 C-0.67 0.67 -0.34 0.34 0 0 Z " fill="#355082" transform="translate(30,61)"/>
<path d="M0 0 C1.98 0 3.96 0 6 0 C6.33 1.32 6.66 2.64 7 4 C5.35 4 3.7 4 2 4 C2 3.34 2 2.68 2 2 C1.34 2 0.68 2 0 2 C0 1.34 0 0.68 0 0 Z " fill="#415581" transform="translate(80,20)"/>
<path d="M0 0 C2.0625 0.4375 2.0625 0.4375 4 1 C3.67 1.66 3.34 2.32 3 3 C2.34 2.67 1.68 2.34 1 2 C1 3.98 1 5.96 1 8 C0.34 7.67 -0.32 7.34 -1 7 C-1.04254356 5.00045254 -1.04080783 2.99958364 -1 1 C-0.67 0.67 -0.34 0.34 0 0 Z " fill="#46597C" transform="translate(90,164)"/>
<path d="M0 0 C0.99 0.33 1.98 0.66 3 1 C3 2.98 3 4.96 3 7 C2.01 6.67 1.02 6.34 0 6 C0 4.02 0 2.04 0 0 Z " fill="#E1E4F2" transform="translate(154,134)"/>
<path d="M0 0 C0 0.66 0 1.32 0 2 C-0.99 2 -1.98 2 -3 2 C-2.34 3.32 -1.68 4.64 -1 6 C-1.99 6.66 -2.98 7.32 -4 8 C-4.33 6.02 -4.66 4.04 -5 2 C-2 0 -2 0 0 0 Z " fill="#D4DBE3" transform="translate(97,91)"/>
<path d="M0 0 C0.66 0.33 1.32 0.66 2 1 C1.34 3.64 0.68 6.28 0 9 C-0.99 7.68 -1.98 6.36 -3 5 C-1.125 1.125 -1.125 1.125 0 0 Z " fill="#CCD4E0" transform="translate(164,64)"/>
<path d="M0 0 C0.33 0.99 0.66 1.98 1 3 C-0.8125 4.5625 -0.8125 4.5625 -3 6 C-3.99 5.67 -4.98 5.34 -6 5 C-2.25 1.125 -2.25 1.125 0 0 Z " fill="#C0D2E4" transform="translate(128,48)"/>
<path d="M0 0 C2 3 2 3 1.625 5.1875 C1.41875 5.785625 1.2125 6.38375 1 7 C-1.475 6.01 -1.475 6.01 -4 5 C-3.01 4.34 -2.02 3.68 -1 3 C-0.67 2.01 -0.34 1.02 0 0 Z " fill="#CFD9E1" transform="translate(136,167)"/>
<path d="M0 0 C1.98 0.99 1.98 0.99 4 2 C4 3.32 4 4.64 4 6 C2.68 6.33 1.36 6.66 0 7 C0 4.69 0 2.38 0 0 Z " fill="#C5CDDF" transform="translate(49,156)"/>
<path d="M0 0 C3.465 1.485 3.465 1.485 7 3 C4 5 4 5 1.3125 4.625 C0.549375 4.41875 -0.21375 4.2125 -1 4 C-0.67 2.68 -0.34 1.36 0 0 Z " fill="#4A5D7D" transform="translate(27,98)"/>
<path d="M0 0 C0.99 0 1.98 0 3 0 C3 0.66 3 1.32 3 2 C3.99 2.33 4.98 2.66 6 3 C3.36 3.33 0.72 3.66 -2 4 C-1.34 2.68 -0.68 1.36 0 0 Z " fill="#CCD5DE" transform="translate(167,76)"/>
<path d="M0 0 C0 0.33 0 0.66 0 1 C-1.6396875 1.433125 -1.6396875 1.433125 -3.3125 1.875 C-7.04013845 2.81893204 -7.04013845 2.81893204 -10 5 C-10 4.01 -10 3.02 -10 2 C-6.3558226 -0.4294516 -4.28758728 -0.16179575 0 0 Z " fill="#526181" transform="translate(34,55)"/>
<path d="M0 0 C2.97 0.495 2.97 0.495 6 1 C4.625 3.5 4.625 3.5 3 6 C2.34 6 1.68 6 1 6 C0.67 4.02 0.34 2.04 0 0 Z " fill="#B8BECC" transform="translate(153,103)"/>
<path d="M0 0 C0.33 0.66 0.66 1.32 1 2 C1.99 2.33 2.98 2.66 4 3 C3.67 3.99 3.34 4.98 3 6 C1.68 5.34 0.36 4.68 -1 4 C-0.67 2.68 -0.34 1.36 0 0 Z " fill="#DBE2EE" transform="translate(75,49)"/>
</svg>
