<?xml version="1.0" encoding="UTF-8"?>
<svg version="1.1" xmlns="http://www.w3.org/2000/svg" width="200" height="200">
<path d="M0 0 C66 0 132 0 200 0 C200 66 200 132 200 200 C134 200 68 200 0 200 C0 134 0 68 0 0 Z " fill="#FDFDFE" transform="translate(0,0)"/>
<path d="M0 0 C1.47583955 0.0001591 2.95168467 0.00585225 4.42749023 0.01586914 C5.20293686 0.01728409 5.97838348 0.01869904 6.77732849 0.02015686 C9.26361893 0.02577194 11.74982059 0.03832693 14.23608398 0.05102539 C15.91772331 0.05603845 17.59936405 0.06060169 19.28100586 0.06469727 C23.41189965 0.07574626 27.54272674 0.09302094 31.67358398 0.11352539 C33.28477655 18.90664077 31.81678967 31.68675068 21.37573242 47.48999023 C18.56012878 51.82970291 16.07957883 56.35419617 13.54858398 60.86352539 C12.55924464 62.58576862 11.56837709 64.30713494 10.57592773 66.02758789 C8.61687053 69.44166346 6.6945876 72.87283041 4.80249023 76.32446289 C4.34825684 77.15236328 3.89402344 77.98026367 3.42602539 78.83325195 C2.57352301 80.39263803 1.72527022 81.95435783 0.88208008 83.51879883 C0.5026123 84.21263672 0.12314453 84.90647461 -0.26782227 85.62133789 C-0.59468018 86.22606934 -0.92153809 86.83080078 -1.25830078 87.45385742 C-2.32641602 89.11352539 -2.32641602 89.11352539 -5.32641602 92.11352539 C-5.65641602 84.52352539 -5.98641602 76.93352539 -6.32641602 69.11352539 C-7.79014648 71.85922852 -7.79014648 71.85922852 -9.28344727 74.66040039 C-10.23641444 76.44112738 -11.18940561 78.22184165 -12.14306641 80.00219727 C-12.8027923 81.23528142 -13.46133683 82.46899841 -14.11865234 83.70336914 C-15.06626957 85.48239315 -16.01855945 87.25892571 -16.97094727 89.03540039 C-17.54176025 90.10371094 -18.11257324 91.17202148 -18.70068359 92.27270508 C-19.23717529 93.21017578 -19.77366699 94.14764648 -20.32641602 95.11352539 C-20.7221582 95.89083008 -21.11790039 96.66813477 -21.52563477 97.46899414 C-24.43209911 100.12327069 -27.76757362 99.6038179 -31.49438477 99.50415039 C-32.28919754 99.4984906 -33.08401031 99.49283081 -33.90290833 99.48699951 C-36.44052467 99.46461543 -38.97672681 99.41441801 -41.51391602 99.36352539 C-43.23459874 99.34346289 -44.95530361 99.32521168 -46.67602539 99.30883789 C-50.89336684 99.26474433 -55.1096517 99.19570504 -59.32641602 99.11352539 C-58.9585498 98.4398291 -58.59068359 97.76613281 -58.21166992 97.07202148 C-55.64710839 92.37318303 -53.08572691 87.67272821 -50.53735352 82.96508789 C-44.6213974 72.05200828 -38.57765721 61.22395798 -32.39282227 50.46118164 C-29.17559133 44.86127629 -25.99926688 39.23866159 -22.82641602 33.61352539 C-18.42283458 25.81439527 -14.01026628 18.02049419 -9.57641602 10.23852539 C-9.06272461 9.33424805 -8.5490332 8.4299707 -8.01977539 7.49829102 C-7.54862305 6.67264648 -7.0774707 5.84700195 -6.59204102 4.99633789 C-6.17728516 4.26817871 -5.7625293 3.54001953 -5.33520508 2.78979492 C-3.60169869 -0.09071205 -3.73220553 0.12737435 0 0 Z " fill="#E91D25" transform="translate(86.326416015625,23.886474609375)"/>
<path d="M0 0 C2.24609375 0.12695312 2.24609375 0.12695312 4.5 0.45703125 C5.66208984 0.54500977 5.66208984 0.54500977 6.84765625 0.63476562 C8.73753919 0.7864229 10.62058021 1.01965385 12.5 1.26953125 C6.97228325 12.86768602 0.64264782 23.97204816 -5.71777344 35.12841797 C-8.7374447 40.45048516 -11.70845586 45.79965599 -14.6875 51.14453125 C-18.98332135 58.84057454 -23.35269278 66.48102524 -27.86157227 74.05395508 C-32.96361664 82.66703811 -37.71709656 91.47662702 -42.5 100.26953125 C-48.44 100.26953125 -54.38 100.26953125 -60.5 100.26953125 C-59.6234375 98.66464844 -58.746875 97.05976562 -57.84375 95.40625 C-55.81331772 91.68478148 -53.79098493 87.95924496 -51.78125 84.2265625 C-46.05211607 73.61329056 -40.13080053 63.14052187 -34.00732422 52.75 C-28.54319385 43.4368565 -23.33405458 33.9912408 -18.18066406 24.50366211 C-16.93328003 22.21899164 -15.6731095 19.94124963 -14.39941406 17.67114258 C-13.08015082 15.30850828 -11.80870007 12.94477728 -10.56152344 10.5456543 C-5.18828313 0.57159051 -5.18828313 0.57159051 0 0 Z " fill="#1B499B" transform="translate(141.5,22.73046875)"/>
<path d="M0 0 C1.58206057 0.00667536 3.16410534 0.0186375 4.74609375 0.03515625 C5.55240234 0.03966797 6.35871094 0.04417969 7.18945312 0.04882812 C9.18753131 0.06065107 11.18557158 0.07858711 13.18359375 0.09765625 C11.78198799 3.81361975 10.0994067 7.21727954 8.1640625 10.68359375 C7.25889893 12.3092627 7.25889893 12.3092627 6.33544922 13.96777344 C5.6807779 15.1361315 5.02598983 16.30442416 4.37109375 17.47265625 C3.69268446 18.68772134 3.01446431 19.90289204 2.33642578 21.11816406 C-3.47625967 31.52697433 -9.33888567 41.90761533 -15.21923828 52.27832031 C-16.84686725 55.1514263 -18.47087688 58.026549 -20.09375 60.90234375 C-27.29274103 73.65822603 -34.53669375 86.38767172 -41.81640625 99.09765625 C-47.42640625 99.09765625 -53.03640625 99.09765625 -58.81640625 99.09765625 C-57.42501893 94.92349428 -56.34495717 91.96289936 -54.234375 88.2890625 C-53.72124756 87.38913574 -53.20812012 86.48920898 -52.67944336 85.56201172 C-52.12651611 84.60439941 -51.57358887 83.64678711 -51.00390625 82.66015625 C-49.8214545 80.59123732 -48.63916743 78.52222426 -47.45703125 76.453125 C-46.85181641 75.39786621 -46.24660156 74.34260742 -45.62304688 73.25537109 C-42.81100712 68.34038161 -40.03416857 63.40566483 -37.25390625 58.47265625 C-32.67511036 50.36354435 -28.06206543 42.27467808 -23.43017578 34.19580078 C-18.64656373 25.83518218 -13.95132073 17.42555352 -9.27172852 9.00634766 C-8.70510498 7.98976074 -8.13848145 6.97317383 -7.5546875 5.92578125 C-7.04977783 5.01731445 -6.54486816 4.10884766 -6.0246582 3.17285156 C-4.24048918 0.10850791 -4.24048918 0.10850791 0 0 Z " fill="#1A489B" transform="translate(160.81640625,23.90234375)"/>
<path d="M0 0 C9.96127904 -0.61828629 9.96127904 -0.61828629 13.625 1.5625 C15.37574907 4.66610062 15.60226219 7.48664932 16 11 C16.66 11.33 17.32 11.66 18 12 C18.99 8.37 19.98 4.74 21 1 C22.65 0.67 24.3 0.34 26 0 C28.37113483 4.96284034 30.43174347 9.45949887 31 15 C31.99 15.33 32.98 15.66 34 16 C34 16.66 34 17.32 34 18 C33.01 18.495 33.01 18.495 32 19 C32.495 19.99 32.495 19.99 33 21 C33.99 21.33 34.98 21.66 36 22 C37.58965571 24.21701147 38.72327486 26.57862473 40 29 C40.99 27.02 41.98 25.04 43 23 C44.32 23 45.64 23 47 23 C45.95218768 25.74043223 44.84078766 28.2929507 43.4375 30.875 C41.86516144 34.29312731 41.37265867 37.27341329 41 41 C40.01 41 39.02 41 38 41 C37.87625 39.783125 37.7525 38.56625 37.625 37.3125 C37.21108694 33.93520941 36.45426549 31.10243305 35 28 C34.01 28.33 33.02 28.66 32 29 C31.67 32.63 31.34 36.26 31 40 C29.02 40.495 29.02 40.495 27 41 C26.505 36.05 26.505 36.05 26 31 C24.68 33.64 23.36 36.28 22 39 C21.34 39 20.68 39 20 39 C19.01 37.02 18.02 35.04 17 33 C16.67 35.64 16.34 38.28 16 41 C14.68 41 13.36 41 12 41 C11.67 36.38 11.34 31.76 11 27 C8.24921116 26.08307039 6.64051087 25.89113917 3.8125 25.9375 C2.554375 25.958125 1.29625 25.97875 0 26 C0 27.65 0 29.3 0 31 C2.64 31 5.28 31 8 31 C8 31.66 8 32.32 8 33 C5.36 33 2.72 33 0 33 C0 34.65 0 36.3 0 38 C2.64 38 5.28 38 8 38 C8 38.99 8 39.98 8 41 C4.37 41 0.74 41 -3 41 C-3.05410136 37.93726169 -3.09372225 34.87548548 -3.125 31.8125 C-3.15013672 30.51602539 -3.15013672 30.51602539 -3.17578125 29.19335938 C-3.21158155 24.52142041 -2.83142248 21.32881677 -1 17 C-0.61544786 14.07006159 -0.49374103 11.13870934 -0.375 8.1875 C-0.33632812 7.39923828 -0.29765625 6.61097656 -0.2578125 5.79882812 C-0.16411156 3.8662462 -0.08099221 1.93315624 0 0 Z " fill="#F2F7FB" transform="translate(113,135)"/>
<path d="M0 0 C0.33 0 0.66 0 1 0 C2.70421091 19.73456064 1.44568495 33.13480601 -9.97949219 49.921875 C-13.44529491 55.20182193 -16.47632722 60.7289349 -19.56323242 66.23602295 C-21.24716352 69.23188312 -22.95568717 72.21332037 -24.6640625 75.1953125 C-25.23592285 76.19578613 -25.8077832 77.19625977 -26.39697266 78.22705078 C-26.92597168 79.14212402 -27.4549707 80.05719727 -28 81 C-28.54317871 81.94472168 -29.08635742 82.88944336 -29.64599609 83.86279297 C-30.09281738 84.56807129 -30.53963867 85.27334961 -31 86 C-31.33 86 -31.66 86 -32 86 C-33.96164551 65.18715669 -31.96132045 52.05754143 -20.12304688 34.28320312 C-16.60289296 28.83943244 -13.48229797 23.17285165 -10.31445312 17.51934814 C-8.62708245 14.51642821 -6.91596306 11.5275367 -5.203125 8.5390625 C-4.34702637 7.04173584 -4.34702637 7.04173584 -3.47363281 5.51416016 C-2.37513392 3.64001476 -1.20500505 1.80750757 0 0 Z " fill="#1A489B" transform="translate(174,30)"/>
<path d="M0 0 C0.33 0 0.66 0 1 0 C3.09670295 22.24578789 0.63169588 36.55737625 -13 55 C-15 57 -15 57 -18.9140625 57.1953125 C-20.48449351 57.18200376 -22.05486221 57.15813602 -23.625 57.125 C-24.42679688 57.11597656 -25.22859375 57.10695312 -26.0546875 57.09765625 C-28.03658523 57.07406223 -30.01832981 57.03819065 -32 57 C-28.10630901 48.98280044 -23.92048847 41.22698776 -19.375 33.5625 C-18.15022806 31.48094726 -16.9262873 29.39890526 -15.703125 27.31640625 C-15.09017578 26.27371582 -14.47722656 25.23102539 -13.84570312 24.15673828 C-10.90349972 19.12463643 -8.01147009 14.0642204 -5.125 9 C-4.60728027 8.09193604 -4.08956055 7.18387207 -3.55615234 6.24829102 C-2.36984653 4.1660496 -1.18437392 2.08334069 0 0 Z " fill="#1A499B" transform="translate(174,66)"/>
<path d="M0 0 C11.88 0 23.76 0 36 0 C36.495 12.375 36.495 12.375 37 25 C38.32 23.35 39.64 21.7 41 20 C41.66 20.33 42.32 20.66 43 21 C36.68094475 32.6949932 30.28785811 44.33832632 23.65893555 55.86083984 C18.9672754 64.0244355 14.375736 72.24280615 9.80712891 80.47583008 C6.68163078 86.08617652 3.45897775 91.5884778 0 97 C-2.00228408 95.34849801 -2.91401441 94.44278044 -3.41650391 91.85522461 C-3.43632324 91.04577393 -3.45614258 90.23632324 -3.4765625 89.40234375 C-3.5075 88.51869141 -3.5384375 87.63503906 -3.5703125 86.72460938 C-3.58835937 85.80486328 -3.60640625 84.88511719 -3.625 83.9375 C-3.67592331 82.11317229 -3.73043559 80.28894014 -3.7890625 78.46484375 C-3.80662598 77.656521 -3.82418945 76.84819824 -3.84228516 76.01538086 C-3.87839837 73.92981168 -3.87839837 73.92981168 -5 72 C-4.01 71.01 -3.02 70.02 -2 69 C-1.67 76.59 -1.34 84.18 -1 92 C0.19625 89.69 1.3925 87.38 2.625 85 C5.93721252 78.68454767 9.42033178 72.48670633 13.03393555 66.33886719 C14.23162981 64.30089628 15.42176478 62.25846612 16.60473633 60.21191406 C19.47524518 55.24969548 22.3945278 50.35753311 25.53125 45.55859375 C34.98316535 30.56566326 35.35126165 18.73871335 35 1 C23.45 1 11.9 1 0 1 C0 0.67 0 0.34 0 0 Z " fill="#F3E2EB" transform="translate(83,23)"/>
<path d="M0 0 C2.95857409 -0.05379226 5.91617721 -0.09357093 8.875 -0.125 C9.71675781 -0.14175781 10.55851562 -0.15851562 11.42578125 -0.17578125 C12.23144531 -0.18222656 13.03710938 -0.18867188 13.8671875 -0.1953125 C14.61081543 -0.20578613 15.35444336 -0.21625977 16.12060547 -0.22705078 C18 0 18 0 20 2 C13.91447078 13.33983124 7.71539992 24.59552779 1.1875 35.6875 C-4.50265582 45.3605281 -10.00515808 55.12558194 -15.43334961 64.94775391 C-20.25336293 73.66895958 -25.13549769 82.35318944 -30.05297852 91.01977539 C-30.81179321 92.35770142 -30.81179321 92.35770142 -31.5859375 93.72265625 C-32.0298584 94.50390869 -32.4737793 95.28516113 -32.93115234 96.09008789 C-33.65124089 97.37680618 -34.34058033 98.68116067 -35 100 C-29.39 100 -23.78 100 -18 100 C-18 100.33 -18 100.66 -18 101 C-23.94 101 -29.88 101 -36 101 C-37.07521965 95.62390176 -37.01328221 95.18326041 -34.45703125 90.78125 C-33.59742798 89.27570557 -33.59742798 89.27570557 -32.72045898 87.73974609 C-32.09083252 86.67062988 -31.46120605 85.60151367 -30.8125 84.5 C-30.1719165 83.3857666 -29.53133301 82.2715332 -28.87133789 81.12353516 C-27.55399169 78.83444032 -26.23064025 76.54879115 -24.90136719 74.26660156 C-22.70548398 70.49401331 -20.54149532 66.7040396 -18.38183594 62.91064453 C-16.92292057 60.34940467 -15.45805118 57.79164347 -13.9921875 55.234375 C-9.18897747 46.84379717 -4.44549813 38.41935138 0.30615234 29.99951172 C2.09416386 26.83325206 3.88468088 23.66841954 5.67578125 20.50390625 C6.5730896 18.91811768 6.5730896 18.91811768 7.48852539 17.30029297 C8.64231955 15.26136358 9.79644139 13.22261957 10.95092773 11.18408203 C11.46727783 10.27126465 11.98362793 9.35844727 12.515625 8.41796875 C13.20060059 7.20790161 13.20060059 7.20790161 13.89941406 5.97338867 C14.6291404 4.66496409 15.33000367 3.33999266 16 2 C10.72 1.67 5.44 1.34 0 1 C0 0.67 0 0.34 0 0 Z " fill="#DAEBF8" transform="translate(137,23)"/>
<path d="M0 0 C10.30769231 0 10.30769231 0 14 3 C15.53214888 6.06429776 15.22938548 8.6165642 15 12 C12.8 16.6 12.8 16.6 10 18 C8.29297265 18.06996014 6.58331997 18.08440154 4.875 18.0625 C3.26625 18.041875 1.6575 18.02125 0 18 C0 12.06 0 6.12 0 0 Z " fill="#4162A0" transform="translate(92,158)"/>
<path d="M0 0 C2.26588734 1.67843507 2.92055278 2.53344232 3.3984375 5.33984375 C3.39070313 6.19707031 3.38296875 7.05429688 3.375 7.9375 C3.38273437 8.79214844 3.39046875 9.64679688 3.3984375 10.52734375 C2.91575611 13.5228077 2.16843831 14.88456796 0 17 C-2.15625 17.53125 -2.15625 17.53125 -4.5 17.5 C-5.2734375 17.5103125 -6.046875 17.520625 -6.84375 17.53125 C-9 17 -9 17 -10.75 15.28125 C-12.91936579 11.32215743 -12.76250542 7.37895969 -12 3 C-8.46365762 -1.60796128 -5.39003434 -1.49723176 0 0 Z " fill="#325896" transform="translate(107,135)"/>
<path d="M0 0 C9.15662651 -0.48192771 9.15662651 -0.48192771 12.625 1.5 C14.56156738 5.0210316 14.72009931 8.13138135 14 12 C12.625 15 12.625 15 10 17 C6.55556947 17.41570713 3.49230243 17.22975674 0 17 C0 11.39 0 5.78 0 0 Z " fill="#20458B" transform="translate(114,135)"/>
<path d="M0 0 C2.475 0.495 2.475 0.495 5 1 C6.88042897 4.50148842 8 7.0080306 8 11 C8.66 11 9.32 11 10 11 C10.20496094 10.37351563 10.40992188 9.74703125 10.62109375 9.1015625 C10.89050781 8.28429687 11.15992188 7.46703125 11.4375 6.625 C11.70433594 5.81289062 11.97117188 5.00078125 12.24609375 4.1640625 C13 2 13 2 14 0 C15.32 0 16.64 0 18 0 C18 5.94 18 11.88 18 18 C17.01 18 16.02 18 15 18 C14.67 14.7 14.34 11.4 14 8 C12.68 10.64 11.36 13.28 10 16 C9.34 16 8.68 16 8 16 C7.01 14.02 6.02 12.04 5 10 C4.67 12.64 4.34 15.28 4 18 C2.68 18 1.36 18 0 18 C0 12.06 0 6.12 0 0 Z " fill="#5775AA" transform="translate(125,158)"/>
<path d="M0 0 C0.33 0 0.66 0 1 0 C1.07441989 4.18087152 1.12872818 8.3613873 1.16479492 12.54272461 C1.1798376 13.96369141 1.20027704 15.38461213 1.22631836 16.80541992 C1.26290347 18.85346886 1.27977097 20.9009015 1.29296875 22.94921875 C1.3086792 24.17987061 1.32438965 25.41052246 1.34057617 26.6784668 C0.97488056 30.2449821 0.0734095 32.11827169 -2 35 C-2.33 33.68 -2.66 32.36 -3 31 C-2.34 31 -1.68 31 -1 31 C-1.66 28.69 -2.32 26.38 -3 24 C-3.99 24.33 -4.98 24.66 -6 25 C-5.67 23.35 -5.34 21.7 -5 20 C-5.66 20 -6.32 20 -7 20 C-7 19.34 -7 18.68 -7 18 C-7.66 18 -8.32 18 -9 18 C-9 19.32 -9 20.64 -9 22 C-9.66 22 -10.32 22 -11 22 C-11.66 23.98 -12.32 25.96 -13 28 C-13.99 28 -14.98 28 -16 28 C-13.88423953 24.17189671 -11.76627713 20.34502302 -9.64624023 16.51928711 C-8.92492574 15.21689115 -8.20422045 13.91415759 -7.48413086 12.61108398 C-6.45064658 10.74113893 -5.41499737 8.87240788 -4.37890625 7.00390625 C-3.7557251 5.87799072 -3.13254395 4.7520752 -2.49047852 3.59204102 C-1 1 -1 1 0 0 Z " fill="#264E96" transform="translate(174,66)"/>
<path d="M0 0 C1.14624023 1.70678711 1.14624023 1.70678711 2 4 C1.17993164 6.22875977 1.17993164 6.22875977 -0.33984375 8.69140625 C-0.90147217 9.62364014 -1.46310059 10.55587402 -2.04174805 11.51635742 C-2.66734619 12.52158447 -3.29294434 13.52681152 -3.9375 14.5625 C-5.23722967 16.71442424 -6.53399154 18.86814315 -7.828125 21.0234375 C-8.16688156 21.5840538 -8.50563812 22.1446701 -8.85466003 22.72227478 C-12.80473804 29.28109244 -16.4960859 35.98084857 -20.1875 42.6875 C-21.4304693 44.94169321 -22.67392487 47.19561839 -23.91796875 49.44921875 C-24.44156982 50.40143311 -24.9651709 51.35364746 -25.50463867 52.3347168 C-30.09668644 60.51943279 -30.09668644 60.51943279 -34 62 C-32.43287908 56.36018691 -29.6884632 51.69536339 -26.75 46.6875 C-25.66812599 44.82097561 -24.58744929 42.95375684 -23.5078125 41.0859375 C-22.93836914 40.10206055 -22.36892578 39.11818359 -21.78222656 38.10449219 C-18.09035774 31.67356013 -14.49941856 25.1854468 -10.89746094 18.70385742 C-7.38060327 12.39622623 -3.75716133 6.16762417 0 0 Z " fill="#D8E9F7" transform="translate(173,26)"/>
<path d="M0 0 C1.26941287 4.1725917 0.45438534 5.8425884 -1.5625 9.75 C-1.86696045 10.34071289 -2.1714209 10.93142578 -2.48510742 11.54003906 C-6.84911736 19.84003237 -11.70805766 27.87505903 -16.46484375 35.953125 C-21.12551305 43.88650187 -25.57863485 51.93151797 -30 60 C-30.66 59.01 -31.32 58.02 -32 57 C-28.10630901 48.98280044 -23.92048847 41.22698776 -19.375 33.5625 C-18.15022806 31.48094726 -16.9262873 29.39890526 -15.703125 27.31640625 C-15.09017578 26.27371582 -14.47722656 25.23102539 -13.84570312 24.15673828 C-10.90349972 19.12463643 -8.01147009 14.0642204 -5.125 9 C-4.60728027 8.09193604 -4.08956055 7.18387207 -3.55615234 6.24829102 C-2.36984653 4.1660496 -1.18437392 2.08334069 0 0 Z " fill="#DFEDF9" transform="translate(173,62)"/>
<path d="M0 0 C1.32 0 2.64 0 4 0 C5.65 3.3 7.3 6.6 9 10 C10.32 7.03 11.64 4.06 13 1 C14.32 1 15.64 1 17 1 C17 6.61 17 12.22 17 18 C16.01 18 15.02 18 14 18 C13.67 15.36 13.34 12.72 13 10 C12.01 11.98 11.02 13.96 10 16 C9.01 16 8.02 16 7 16 C6.01 13.69 5.02 11.38 4 9 C3.67 11.97 3.34 14.94 3 18 C2.01 18 1.02 18 0 18 C0 12.06 0 6.12 0 0 Z " fill="#355795" transform="translate(27,134)"/>
<path d="M0 0 C1.588125 -0.061875 3.17625 -0.12375 4.8125 -0.1875 C6.15248047 -0.23970703 6.15248047 -0.23970703 7.51953125 -0.29296875 C10 0 10 0 11.83984375 1.32421875 C13 3 13 3 12.75 6 C12 9 12 9 11 12 C11.87914688 14.6569191 11.87914688 14.6569191 13 17 C11.35 16.67 9.7 16.34 8 16 C7.67 14.35 7.34 12.7 7 11 C5.68 11 4.36 11 3 11 C3 12.98 3 14.96 3 17 C2.01 17 1.02 17 0 17 C0 11.39 0 5.78 0 0 Z " fill="#31569A" transform="translate(79,135)"/>
<path d="M0 0 C1.65 0.33 3.3 0.66 5 1 C5.83698386 3.45714547 6.66972424 5.91558857 7.5 8.375 C7.73847656 9.07367188 7.97695313 9.77234375 8.22265625 10.4921875 C10 15.7734375 10 15.7734375 10 18 C8.68 18 7.36 18 6 18 C5.67 16.35 5.34 14.7 5 13 C3.02 13.33 1.04 13.66 -1 14 C-1.33 15.32 -1.66 16.64 -2 18 C-3.32 18 -4.64 18 -6 18 C-4.41039668 11.76559832 -2.72399099 5.83712355 0 0 Z " fill="#254A8E" transform="translate(46,158)"/>
<path d="M0 0 C11.88 0 23.76 0 36 0 C36.495 12.375 36.495 12.375 37 25 C38.32 23.35 39.64 21.7 41 20 C41.66 20.33 42.32 20.66 43 21 C41.0642477 24.5634523 39.12609069 28.12559116 37.1875 31.6875 C36.64029297 32.69490234 36.09308594 33.70230469 35.52929688 34.74023438 C34.99755859 35.71669922 34.46582031 36.69316406 33.91796875 37.69921875 C33.43094482 38.59471436 32.9439209 39.49020996 32.44213867 40.4128418 C31.96623291 41.266604 31.49032715 42.12036621 31 43 C30.22910034 44.40149292 30.22910034 44.40149292 29.44262695 45.83129883 C28.96656006 46.54697021 28.49049316 47.2626416 28 48 C27.34 48 26.68 48 26 48 C26.95061819 42.96172358 28.2667345 39.45061433 31.03125 35.125 C34.82956696 28.30002415 34.88860759 21.97856108 34.875 14.3125 C34.91625 9.919375 34.9575 5.52625 35 1 C23.45 1 11.9 1 0 1 C0 0.67 0 0.34 0 0 Z " fill="#F5CBD0" transform="translate(83,23)"/>
<path d="M0 0 C1.65 0 3.3 0 5 0 C5.83887056 2.43572059 6.67126529 4.87333217 7.5 7.3125 C7.73847656 8.00279297 7.97695312 8.69308594 8.22265625 9.40429688 C9.23208263 12.38931489 10 14.82658914 10 18 C8.68 18 7.36 18 6 18 C6 16.35 6 14.7 6 13 C3.69 13 1.38 13 -1 13 C-1.33 14.65 -1.66 16.3 -2 18 C-2.99 18 -3.98 18 -5 18 C-3.75971762 11.82777121 -2.10396411 5.93317878 0 0 Z " fill="#20468A" transform="translate(79,158)"/>
<path d="M0 0 C2.32421875 0.06640625 2.32421875 0.06640625 5 1 C6.2287699 3.3998938 7.04436044 5.39634323 7.8125 7.9375 C8.02841797 8.58396484 8.24433594 9.23042969 8.46679688 9.89648438 C10 14.58370536 10 14.58370536 10 17 C8.68 17 7.36 17 6 17 C5.67 15.68 5.34 14.36 5 13 C3.02 13 1.04 13 -1 13 C-1.33 14.32 -1.66 15.64 -2 17 C-2.99 17 -3.98 17 -5 17 C-4.46246904 10.81839396 -2.45417612 5.673142 0 0 Z " fill="#34569A" transform="translate(135,135)"/>
<path d="M0 0 C1.65 0 3.3 0 5 0 C5.73355732 1.96726736 6.46695261 3.93459541 7.19921875 5.90234375 C7.82210924 7.53401298 8.49511601 9.14658444 9.1875 10.75 C10 13 10 13 10 17 C9.01 17 8.02 17 7 17 C6.67 15.68 6.34 14.36 6 13 C3.69 13 1.38 13 -1 13 C-1 14.32 -1 15.64 -1 17 C-2.32 17 -3.64 17 -5 17 C-4.31063929 13.08878502 -3.21749819 9.44491404 -1.9375 5.6875 C-1.57527344 4.61886719 -1.21304688 3.55023438 -0.83984375 2.44921875 C-0.56269531 1.64097656 -0.28554687 0.83273438 0 0 Z " fill="#2F5291" transform="translate(164,135)"/>
<path d="M0 0 C0.33 0 0.66 0 1 0 C1 6.93 1 13.86 1 21 C-2.96 21 -6.92 21 -11 21 C-9.69646 17.74115 -8.5363417 14.99957184 -6.8359375 12.01171875 C-6.43632812 11.30595703 -6.03671875 10.60019531 -5.625 9.87304688 C-5.2125 9.15181641 -4.8 8.43058594 -4.375 7.6875 C-3.95476562 6.94693359 -3.53453125 6.20636719 -3.1015625 5.44335938 C-2.07051505 3.62730989 -1.03563954 1.81343467 0 0 Z " fill="#244B91" transform="translate(174,102)"/>
<path d="M0 0 C0.33 1.32 0.66 2.64 1 4 C1.99 3.67 2.98 3.34 4 3 C4.10807131 4.93627769 4.1856225 6.87427756 4.25 8.8125 C4.29640625 9.89144531 4.3428125 10.97039062 4.390625 12.08203125 C4 15 4 15 1.984375 16.88671875 C1.32953125 17.25410156 0.6746875 17.62148437 0 18 C0 17.01 0 16.02 0 15 C-2.64 15 -5.28 15 -8 15 C-8 13.35 -8 11.7 -8 10 C-5.36 10 -2.72 10 0 10 C0 9.34 0 8.68 0 8 C-2.64 8 -5.28 8 -8 8 C-8 6.35 -8 4.7 -8 3 C-5.36 3 -2.72 3 0 3 C0 2.01 0 1.02 0 0 Z " fill="#DEE9F5" transform="translate(121,158)"/>
<path d="M0 0 C2.95857409 -0.05379226 5.91617721 -0.09357093 8.875 -0.125 C9.71675781 -0.14175781 10.55851563 -0.15851562 11.42578125 -0.17578125 C12.23144531 -0.18222656 13.03710938 -0.18867188 13.8671875 -0.1953125 C14.61081543 -0.20578613 15.35444336 -0.21625977 16.12060547 -0.22705078 C18 0 18 0 20 2 C12.91276083 15.15231568 5.68213458 28.18511179 -2 41 C-2.66 40.67 -3.32 40.34 -4 40 C-2.57737764 35.15861501 -0.45678051 30.96684186 2.0625 26.625 C2.86474375 25.22144584 3.66682184 23.81779699 4.46875 22.4140625 C4.88253906 21.69379883 5.29632813 20.97353516 5.72265625 20.23144531 C7.85846607 16.50030966 9.95876112 12.74927945 12.0625 9 C12.82405604 7.64574182 13.58575951 6.29156653 14.34765625 4.9375 C14.89292969 3.968125 15.43820313 2.99875 16 2 C10.72 1.67 5.44 1.34 0 1 C0 0.67 0 0.34 0 0 Z " fill="#D8E8F7" transform="translate(137,23)"/>
<path d="M0 0 C2.375 1.875 2.375 1.875 4 4 C4 4.66 4 5.32 4 6 C2.68 6 1.36 6 0 6 C-0.33 5.34 -0.66 4.68 -1 4 C-2.65 4.33 -4.3 4.66 -6 5 C-6 7.64 -6 10.28 -6 13 C-4.35 13.33 -2.7 13.66 -1 14 C-0.67 13.34 -0.34 12.68 0 12 C1.32 12 2.64 12 4 12 C3.6875 13.875 3.6875 13.875 3 16 C-0.69486103 18.46324069 -2.63293092 18.38991688 -7 18 C-8.69140625 16.8203125 -8.69140625 16.8203125 -10 15 C-10.8161173 10.18417271 -10.93102252 5.53976802 -8.375 1.3125 C-5.26794769 -0.40455522 -3.50031342 -0.58338557 0 0 Z " fill="#315392" transform="translate(68,158)"/>
<path d="M0 0 C3.63 0 7.26 0 11 0 C11 0.66 11 1.32 11 2 C8.36 2 5.72 2 3 2 C3 3.65 3 5.3 3 7 C5.64 7 8.28 7 11 7 C11 7.99 11 8.98 11 10 C8.69 10 6.38 10 4 10 C4 11.32 4 12.64 4 14 C6.31 14 8.62 14 11 14 C11 14.99 11 15.98 11 17 C7.37 17 3.74 17 0 17 C0 11.39 0 5.78 0 0 Z " fill="#23468A" transform="translate(49,135)"/>
<path d="M0 0 C3.63 0 7.26 0 11 0 C11 0.99 11 1.98 11 3 C8.36 3 5.72 3 3 3 C3 4.65 3 6.3 3 8 C5.64 8 8.28 8 11 8 C11 8.66 11 9.32 11 10 C8.36 10 5.72 10 3 10 C3 11.65 3 13.3 3 15 C5.64 15 8.28 15 11 15 C11 15.99 11 16.98 11 18 C7.37 18 3.74 18 0 18 C0 12.06 0 6.12 0 0 Z " fill="#2A4E90" transform="translate(110,158)"/>
<path d="M0 0 C4.62 0 9.24 0 14 0 C14 1.32 14 2.64 14 4 C12.35 4 10.7 4 9 4 C9 8.62 9 13.24 9 18 C7.68 18 6.36 18 5 18 C5 13.38 5 8.76 5 4 C3.35 4 1.7 4 0 4 C0 2.68 0 1.36 0 0 Z " fill="#4567A5" transform="translate(145,134)"/>
<path d="M0 0 C2.38671875 0.33984375 2.38671875 0.33984375 5 1 C6.8125 3.5625 6.8125 3.5625 8 6 C8.99 4.02 9.98 2.04 11 0 C12.32 0 13.64 0 15 0 C13.95218768 2.74043223 12.84078766 5.2929507 11.4375 7.875 C9.86516144 11.29312731 9.37265867 14.27341329 9 18 C8.01 18 7.02 18 6 18 C5.938125 16.88625 5.87625 15.7725 5.8125 14.625 C5.16800296 9.17607052 2.63164357 4.73890059 0 0 Z " fill="#3A5B97" transform="translate(145,158)"/>
<path d="M0 0 C1.32 0 2.64 0 4 0 C4 5.94 4 11.88 4 18 C3.01 18 2.02 18 1 18 C0.67 14.7 0.34 11.4 0 8 C-1.32 10.64 -2.64 13.28 -4 16 C-4.66 16 -5.32 16 -6 16 C-5.37183502 12.05050296 -4.1354471 8.80107972 -2.4375 5.1875 C-1.98246094 4.21167969 -1.52742187 3.23585937 -1.05859375 2.23046875 C-0.70925781 1.49441406 -0.35992187 0.75835937 0 0 Z " fill="#345595" transform="translate(139,158)"/>
<path d="M0 0 C2.625 0.375 2.625 0.375 5 1 C5 1.66 5 2.32 5 3 C6.32 3 7.64 3 9 3 C9 3.66 9 4.32 9 5 C7.68 5 6.36 5 5 5 C5.99 6.32 6.98 7.64 8 9 C7.01 9 6.02 9 5 9 C4.67 9.99 4.34 10.98 4 12 C-0.875 11.125 -0.875 11.125 -2 10 C-2.27314815 4.26388889 -2.27314815 4.26388889 -2 2 C-1.34 1.34 -0.68 0.68 0 0 Z " fill="#EFF7FC" transform="translate(63,161)"/>
<path d="M0 0 C4.29 0 8.58 0 13 0 C13 0.66 13 1.32 13 2 C11.35 2 9.7 2 8 2 C8 6.95 8 11.9 8 17 C6.68 17 5.36 17 4 17 C4 12.05 4 7.1 4 2 C2.68 2 1.36 2 0 2 C0 1.34 0 0.68 0 0 Z " fill="#325493" transform="translate(63,135)"/>
<path d="M0 0 C0.33 0 0.66 0 1 0 C1.33 6.27 1.66 12.54 2 19 C2.99 19.33 3.98 19.66 5 20 C5 19.01 5 18.02 5 17 C5.66 17 6.32 17 7 17 C6.6596875 16.1028125 6.6596875 16.1028125 6.3125 15.1875 C6.209375 14.465625 6.10625 13.74375 6 13 C7.3125 11.25 7.3125 11.25 9 10 C9.66 10 10.32 10 11 10 C10.37666027 12.95296424 9.43098208 15.27546792 7.93359375 17.890625 C7.53076172 18.59960938 7.12792969 19.30859375 6.71289062 20.0390625 C6.08157227 21.13347656 6.08157227 21.13347656 5.4375 22.25 C5.01275391 22.99507812 4.58800781 23.74015625 4.15039062 24.5078125 C3.10453958 26.34098961 2.05283808 28.17082677 1 30 C0.67 30 0.34 30 0 30 C0 20.1 0 10.2 0 0 Z " fill="#3E609F" transform="translate(142,86)"/>
<path d="M0 0 C1.65 0 3.3 0 5 0 C7 2 7 2 7.265625 3.875 C7.26046875 4.57625 7.2553125 5.2775 7.25 6 C7.25515625 6.70125 7.2603125 7.4025 7.265625 8.125 C7 10 7 10 5 12 C3.35 12 1.7 12 0 12 C0 8.04 0 4.08 0 0 Z " fill="#E7F1FA" transform="translate(117,137)"/>
<path d="M0 0 C2.69540315 -0.26686213 5.15847464 -0.34818073 7.8515625 -0.29296875 C8.62559418 -0.28872391 9.39962585 -0.28447906 10.19711304 -0.28010559 C12.67342677 -0.26328998 15.14893158 -0.22563395 17.625 -0.1875 C19.30207159 -0.17245682 20.97915592 -0.15876778 22.65625 -0.14648438 C26.77139694 -0.11592635 30.88479134 -0.05721454 35 0 C35 9.24 35 18.48 35 28 C34.67 28 34.34 28 34 28 C34 19.09 34 10.18 34 1 C17.665 1.495 17.665 1.495 1 2 C0.67 3.65 0.34 5.3 0 7 C-1.32 7.33 -2.64 7.66 -4 8 C-2.87548273 5.0280615 -1.77706209 2.66559313 0 0 Z " fill="#CD2B32" transform="translate(83,24)"/>
<path d="M0 0 C1.65 0 3.3 0 5 0 C7.44897847 3.67346771 7.31537716 5.66356399 7 10 C6.34 10.66 5.68 11.32 5 12 C3.35 12 1.7 12 0 12 C0 8.04 0 4.08 0 0 Z " fill="#EFF7FC" transform="translate(96,161)"/>
<path d="M0 0 C1.25127906 3.54667178 0.72285053 5.72253438 -0.4375 9.25 C-0.86869141 10.58804688 -0.86869141 10.58804688 -1.30859375 11.953125 C-1.53675781 12.62859375 -1.76492187 13.3040625 -2 14 C-2.66 14 -3.32 14 -4 14 C-4.33 14.66 -4.66 15.32 -5 16 C-5.66 16 -6.32 16 -7 16 C-7 16.99 -7 17.98 -7 19 C-7.66 19 -8.32 19 -9 19 C-9 19.99 -9 20.98 -9 22 C-9.66 22 -10.32 22 -11 22 C-11.144375 22.78375 -11.28875 23.5675 -11.4375 24.375 C-12 27 -12 27 -13 29 C-13.66 29 -14.32 29 -15 29 C-15.99 31.475 -15.99 31.475 -17 34 C-17.33 33.34 -17.66 32.68 -18 32 C-16.8918457 29.58911133 -16.8918457 29.58911133 -15.17578125 26.58203125 C-14.55896484 25.49212891 -13.94214844 24.40222656 -13.30664062 23.27929688 C-12.64857422 22.13525391 -11.99050781 20.99121094 -11.3125 19.8125 C-10.67376953 18.68779297 -10.03503906 17.56308594 -9.37695312 16.40429688 C-7.59232891 13.26505615 -5.79790562 10.1316478 -4 7 C-3.18062597 5.56661404 -2.36153604 4.13306556 -1.54296875 2.69921875 C-1.03378906 1.80847656 -0.52460937 0.91773438 0 0 Z " fill="#D73038" transform="translate(70,46)"/>
<path d="M0 0 C0.33 0 0.66 0 1 0 C1.09953791 4.14422261 1.17177901 8.28779575 1.21972656 12.43286133 C1.23973246 13.84021134 1.26694662 15.24747938 1.30175781 16.65454102 C1.64901503 31.06060875 1.64901503 31.06060875 -3 37 C-3.33 37 -3.66 37 -4 37 C-4 35.02 -4 33.04 -4 31 C-3.01 31 -2.02 31 -1 31 C-1 22.75 -1 14.5 -1 6 C-1.66 5.67 -2.32 5.34 -3 5 C-2.03114628 3.31503702 -1.03013277 1.64821244 0 0 Z " fill="#3D5C94" transform="translate(174,30)"/>
<path d="M0 0 C3.53571429 0.53571429 3.53571429 0.53571429 5 2 C5.0979057 3.49738124 5.12974864 4.99942892 5.125 6.5 C5.12757812 7.3146875 5.13015625 8.129375 5.1328125 8.96875 C5 11 5 11 4 12 C1.5 12.125 1.5 12.125 -1 12 C-2.58894072 10.41105928 -2.16998411 8.75198576 -2.1875 6.5625 C-2.20167969 5.75941406 -2.21585937 4.95632812 -2.23046875 4.12890625 C-2 2 -2 2 0 0 Z " fill="#F3FAFE" transform="translate(101,137)"/>
<path d="M0 0 C0.33 0 0.66 0 1 0 C1.33 2.97 1.66 5.94 2 9 C1.236875 9.433125 0.47375 9.86625 -0.3125 10.3125 C-4.02312368 12.6424265 -6.15298529 14.97279945 -8.26171875 18.79296875 C-8.85629883 19.8612793 -8.85629883 19.8612793 -9.46289062 20.95117188 C-9.86701172 21.68916016 -10.27113281 22.42714844 -10.6875 23.1875 C-11.10322266 23.93708984 -11.51894531 24.68667969 -11.94726562 25.45898438 C-12.96937725 27.30348466 -13.9852981 29.1514131 -15 31 C-15.66 30.67 -16.32 30.34 -17 30 C-15.06211228 26.53061135 -13.12319447 23.06180061 -11.18334961 19.59350586 C-10.20177404 17.83802811 -9.22099827 16.08210323 -8.24023438 14.32617188 C-7.61826172 13.21435547 -6.99628906 12.10253906 -6.35546875 10.95703125 C-5.78465576 9.93585205 -5.21384277 8.91467285 -4.62573242 7.86254883 C-1.50209372 2.36252422 -1.50209372 2.36252422 0 0 Z " fill="#274F95" transform="translate(150,36)"/>
<path d="M0 0 C3.3 0 6.6 0 10 0 C10 0.99 10 1.98 10 3 C7.69 2.67 5.38 2.34 3 2 C3 3.98 3 5.96 3 8 C4.32 8.33 5.64 8.66 7 9 C5.68 9.33 4.36 9.66 3 10 C3 12.31 3 14.62 3 17 C2.01 17 1.02 17 0 17 C0 11.39 0 5.78 0 0 Z " fill="#22458B" transform="translate(79,135)"/>
<path d="M0 0 C12.87 0 25.74 0 39 0 C39 0.33 39 0.66 39 1 C36.03 1 33.06 1 30 1 C30 6.61 30 12.22 30 18 C29.67 18 29.34 18 29 18 C29 13.38 29 8.76 29 4 C26.69 4 24.38 4 22 4 C22 3.67 22 3.34 22 3 C23.65 3 25.3 3 27 3 C27 2.34 27 1.68 27 1 C22.71 1 18.42 1 14 1 C13.67 1.66 13.34 2.32 13 3 C12.34 3 11.68 3 11 3 C11 2.34 11 1.68 11 1 C7.37 1 3.74 1 0 1 C0 0.67 0 0.34 0 0 Z " fill="#9BB2DA" transform="translate(49,134)"/>
<path d="M0 0 C0.66 0.99 1.32 1.98 2 3 C-1.63 9.6 -5.26 16.2 -9 23 C-10.32 22.67 -11.64 22.34 -13 22 C-8.71 14.74 -4.42 7.48 0 0 Z " fill="#DDECF8" transform="translate(172,100)"/>
<path d="M0 0 C1.65 0.33 3.3 0.66 5 1 C5.38922918 2.28745036 5.76098036 3.58019597 6.125 4.875 C6.33382812 5.59429687 6.54265625 6.31359375 6.7578125 7.0546875 C6.83773437 7.69664062 6.91765625 8.33859375 7 9 C5 11 5 11 2.375 11.125 C1.59125 11.08375 0.8075 11.0425 0 11 C-0.144375 10.21625 -0.28875 9.4325 -0.4375 8.625 C-0.87798925 6.03578982 -0.87798925 6.03578982 -2 4 C-1.0625 1.875 -1.0625 1.875 0 0 Z " fill="#3A5C9A" transform="translate(46,158)"/>
<path d="M0 0 C1.65 0 3.3 0 5 0 C5.66 2.31 6.32 4.62 7 7 C6.01 7 5.02 7 4 7 C4.33 8.32 4.66 9.64 5 11 C3.35 11 1.7 11 0 11 C0 10.01 0 9.02 0 8 C-0.66 8 -1.32 8 -2 8 C-1.34 5.36 -0.68 2.72 0 0 Z " fill="#395A9A" transform="translate(79,158)"/>
<path d="M0 0 C8.3984375 -0.1953125 8.3984375 -0.1953125 11 0 C13 2 13 2 13.125 5.625 C13.08375 6.73875 13.0425 7.8525 13 9 C12.34 9 11.68 9 11 9 C9.515 6.03 9.515 6.03 8 3 C6.35 3 4.7 3 3 3 C1.71553081 5.56893838 1.67022856 7.76576337 1.4375 10.625 C1.35371094 11.62789062 1.26992187 12.63078125 1.18359375 13.6640625 C1.12300781 14.43492187 1.06242187 15.20578125 1 16 C0.67 16 0.34 16 0 16 C0 10.72 0 5.44 0 0 Z " fill="#264B91" transform="translate(93,159)"/>
<path d="M0 0 C2.32421875 0.06640625 2.32421875 0.06640625 5 1 C6.2287699 3.3998938 7.04436044 5.39634323 7.8125 7.9375 C8.02841797 8.58396484 8.24433594 9.23042969 8.46679688 9.89648438 C10 14.58370536 10 14.58370536 10 17 C8.68 17 7.36 17 6 17 C5.5196682 15.41701974 5.04078388 13.83360022 4.5625 12.25 C4.29566406 11.36828125 4.02882812 10.4865625 3.75390625 9.578125 C3 7 3 7 2.52734375 4.734375 C2.26630859 3.87585938 2.26630859 3.87585938 2 3 C1.34 2.67 0.68 2.34 0 2 C0 1.34 0 0.68 0 0 Z " fill="#264D91" transform="translate(135,135)"/>
<path d="M0 0 C0.66 0 1.32 0 2 0 C3.18681726 3.56045177 3.09689832 6.43808337 3.0625 10.1875 C3.05347656 11.45980469 3.04445313 12.73210937 3.03515625 14.04296875 C3.02355469 15.01878906 3.01195313 15.99460937 3 17 C3.66 17 4.32 17 5 17 C5 16.01 5 15.02 5 14 C5.66 14 6.32 14 7 14 C5.77782954 18.04256383 4.37245704 21.49288959 2 25 C1.67 25 1.34 25 1 25 C0.67 16.75 0.34 8.5 0 0 Z " fill="#D04448" transform="translate(80,91)"/>
<path d="M0 0 C1 2 1 2 0.328125 4.27734375 C-0.02765625 5.15519531 -0.3834375 6.03304687 -0.75 6.9375 C-1.26820312 8.25041016 -1.26820312 8.25041016 -1.796875 9.58984375 C-2.95642525 11.91270902 -4.05798473 13.30910739 -6 15 C-3.87420987 14.94011859 -1.74921587 14.85137256 0.375 14.75 C1.55835937 14.70359375 2.74171875 14.6571875 3.9609375 14.609375 C7.11291753 14.34351201 7.11291753 14.34351201 8.4140625 11.953125 C8.60742188 11.30859375 8.80078125 10.6640625 9 10 C9.66 10 10.32 10 11 10 C11.33 9.34 11.66 8.68 12 8 C11.34099246 11.07536854 10.46132217 13.07735566 9 16 C3.39 16 -2.22 16 -8 16 C-6.49947591 11.49842772 -5.29497484 8.51800301 -2.875 4.625 C-2.06675781 3.31402344 -2.06675781 3.31402344 -1.2421875 1.9765625 C-0.83226563 1.32429688 -0.42234375 0.67203125 0 0 Z " fill="#2E4E8D" transform="translate(110,107)"/>
<path d="M0 0 C1.9375 1.5625 1.9375 1.5625 3 3 C2.67 3.66 2.34 4.32 2 5 C1.2575 4.649375 0.515 4.29875 -0.25 3.9375 C-3.1322726 2.95490707 -4.21176345 2.9673198 -7 4 C-7.33 6.31 -7.66 8.62 -8 11 C-8.33 11 -8.66 11 -9 11 C-9 9.35 -9 7.7 -9 6 C-9.99 6 -10.98 6 -12 6 C-11.64267506 3.40939422 -11.1383604 2.15432506 -9.375 0.1875 C-5.92246609 -1.53876696 -3.67500368 -0.93545548 0 0 Z " fill="#3F5E9B" transform="translate(107,135)"/>
<path d="M0 0 C5.61 0 11.22 0 17 0 C15.68 2.97 14.36 5.94 13 9 C10 7 10 7 9.3125 3.875 C9.209375 2.92625 9.10625 1.9775 9 1 C6.03 1 3.06 1 0 1 C0 0.67 0 0.34 0 0 Z " fill="#214C93" transform="translate(137,24)"/>
<path d="M0 0 C0.33 0 0.66 0 1 0 C1 6.93 1 13.86 1 21 C0.67 21 0.34 21 0 21 C-0.33 17.7 -0.66 14.4 -1 11 C-1.99 11.33 -2.98 11.66 -4 12 C-3.53439347 7.25081338 -2.83067342 3.89217595 0 0 Z " fill="#3A5B95" transform="translate(174,102)"/>
<path d="M0 0 C1.125 1.75 1.125 1.75 2 4 C1.07451225 6.69933926 0.57626463 7.71186768 -2 9 C2.29 9.33 6.58 9.66 11 10 C11 10.33 11 10.66 11 11 C5.39 11 -0.22 11 -6 11 C-1.125 1.125 -1.125 1.125 0 0 Z " fill="#2A4C8D" transform="translate(148,112)"/>
<path d="M0 0 C1.65 0 3.3 0 5 0 C6.231394 3.69418201 5.64432764 6.2056261 5 10 C3.68 10 2.36 10 1 10 C0.855625 9.21625 0.71125 8.4325 0.5625 7.625 C0.12201075 5.03578982 0.12201075 5.03578982 -1 3 C-0.67 2.01 -0.34 1.02 0 0 Z " fill="#2E5395" transform="translate(164,135)"/>
<path d="M0 0 C2.64 0 5.28 0 8 0 C8 0.33 8 0.66 8 1 C5.69 1 3.38 1 1 1 C1 2.32 1 3.64 1 5 C3.31 5 5.62 5 8 5 C8 5.99 8 6.98 8 8 C5.03 8 2.06 8 -1 8 C-1.33 6.68 -1.66 5.36 -2 4 C-1.34 4 -0.68 4 0 4 C0 2.68 0 1.36 0 0 Z " fill="#4665A0" transform="translate(52,144)"/>
<path d="M0 0 C1.9375 0.5625 1.9375 0.5625 4 2 C4.75 5.625 4.75 5.625 5 9 C2.69 8.67 0.38 8.34 -2 8 C-1.34 5.36 -0.68 2.72 0 0 Z " fill="#7895C4" transform="translate(134,136)"/>
<path d="M0 0 C0.99 0 1.98 0 3 0 C3 5.61 3 11.22 3 17 C2.34 17 1.68 17 1 17 C0.67 11.39 0.34 5.78 0 0 Z " fill="#1E468F" transform="translate(41,135)"/>
<path d="M0 0 C2 3 2 3 2 5 C1.21625 5.7425 0.4325 6.485 -0.375 7.25 C-3.18358515 10.1923273 -3.83801052 12.18203458 -5 16 C-6.625 17.875 -6.625 17.875 -8 19 C-8.66 18.67 -9.32 18.34 -10 18 C-6.7 12.06 -3.4 6.12 0 0 Z " fill="#2D4F95" transform="translate(164,47)"/>
<path d="M0 0 C2.95857409 -0.05379226 5.91617721 -0.09357093 8.875 -0.125 C9.71675781 -0.14175781 10.55851563 -0.15851562 11.42578125 -0.17578125 C12.23144531 -0.18222656 13.03710938 -0.18867188 13.8671875 -0.1953125 C14.98262939 -0.21102295 14.98262939 -0.21102295 16.12060547 -0.22705078 C18 0 18 0 20 2 C19.01 3.98 18.02 5.96 17 8 C16.01 8 15.02 8 14 8 C14.66 6.02 15.32 4.04 16 2 C10.72 1.67 5.44 1.34 0 1 C0 0.67 0 0.34 0 0 Z " fill="#BECFE5" transform="translate(137,23)"/>
<path d="M0 0 C0.99 0.33 1.98 0.66 3 1 C2.67 6.28 2.34 11.56 2 17 C1.34 17 0.68 17 0 17 C0 11.39 0 5.78 0 0 Z " fill="#204791" transform="translate(126,159)"/>
<path d="M0 0 C0.66 0.33 1.32 0.66 2 1 C1.34 2.32 0.68 3.64 0 5 C-5.94 5 -11.88 5 -18 5 C-17.34 3.68 -16.68 2.36 -16 1 C-15.67 1.99 -15.34 2.98 -15 4 C-8.565 3.505 -8.565 3.505 -2 3 C-2 2.34 -2 1.68 -2 1 C-1.34 0.67 -0.68 0.34 0 0 Z " fill="#2C5087" transform="translate(99,118)"/>
<path d="M0 0 C1 3 1 3 -0.65234375 6.35546875 C-1.40377702 7.63889017 -2.16596501 8.91606134 -2.9375 10.1875 C-3.51661133 11.16879883 -3.51661133 11.16879883 -4.10742188 12.16992188 C-5.06253088 13.78535316 -6.03010066 15.39340525 -7 17 C-7.5534764 14.92446352 -8 13.15634036 -8 11 C-7.01 11 -6.02 11 -5 11 C-4.67 9.02 -4.34 7.04 -4 5 C-3.34 5 -2.68 5 -2 5 C-2 3.68 -2 2.36 -2 1 C-1.34 0.67 -0.68 0.34 0 0 Z " fill="#2F5196" transform="translate(135,90)"/>
<path d="M0 0 C1.32 1.32 2.64 2.64 4 4 C2.52307692 8.67692308 2.52307692 8.67692308 -0.125 10.3125 C-1.053125 10.6528125 -1.053125 10.6528125 -2 11 C-2 10.34 -2 9.68 -2 9 C-3.65 9 -5.3 9 -7 9 C-7 8.67 -7 8.34 -7 8 C-5.02 7.34 -3.04 6.68 -1 6 C-0.67 4.02 -0.34 2.04 0 0 Z " fill="#3A5F9C" transform="translate(124,141)"/>
<path d="M0 0 C0.66 0 1.32 0 2 0 C0.45614871 4.14032846 -1.51028938 7.93553053 -3.625 11.8125 C-4.11226562 12.7087207 -4.11226562 12.7087207 -4.609375 13.62304688 C-5.40379151 15.08337135 -6.20155376 16.54187491 -7 18 C-8.1171875 14.28125 -8.1171875 14.28125 -7.0625 11.75 C-6.711875 11.1725 -6.36125 10.595 -6 10 C-5.34 10 -4.68 10 -4 10 C-3.8453125 8.9171875 -3.8453125 8.9171875 -3.6875 7.8125 C-2.93206053 4.72206579 -1.84468685 2.58256159 0 0 Z " fill="#FDDCD9" transform="translate(67,48)"/>
<path d="M0 0 C1.65 0 3.3 0 5 0 C5.38218767 1.65614657 5.71395102 3.32457024 6 5 C5 6 5 6 2.4375 6.0625 C1.2309375 6.0315625 1.2309375 6.0315625 0 6 C0 4.02 0 2.04 0 0 Z " fill="#E0EDFB" transform="translate(82,137)"/>
<path d="M0 0 C2.64 0 5.28 0 8 0 C7.01 1.485 7.01 1.485 6 3 C6.66 3.66 7.32 4.32 8 5 C5.36 5 2.72 5 0 5 C0 3.35 0 1.7 0 0 Z " fill="#CADDF0" transform="translate(52,137)"/>
<path d="M0 0 C3.875 1.75 3.875 1.75 5 4 C5.039992 5.99960012 5.04346799 8.00047242 5 10 C4.01 10.33 3.02 10.66 2 11 C1.690625 9.88625 1.38125 8.7725 1.0625 7.625 C0.17673517 4.2054845 0.17673517 4.2054845 -1 2 C-0.67 1.34 -0.34 0.68 0 0 Z " fill="#2A4F91" transform="translate(123,135)"/>
<path d="M0 0 C1.32 0 2.64 0 4 0 C4 3.3 4 6.6 4 10 C3.01 10 2.02 10 1 10 C0.67 6.7 0.34 3.4 0 0 Z " fill="#24488B" transform="translate(150,166)"/>
<path d="M0 0 C2.71843438 3.62457917 3.41789544 4.80884715 4 9 C4.99 9.33 5.98 9.66 7 10 C4.69 10.33 2.38 10.66 0 11 C0 7.37 0 3.74 0 0 Z " fill="#D8E7F7" transform="translate(30,141)"/>
<path d="M0 0 C0.33 1.32 0.66 2.64 1 4 C0.34 4 -0.32 4 -1 4 C-1.33 5.98 -1.66 7.96 -2 10 C-2.66 10 -3.32 10 -4 10 C-4.66 11.98 -5.32 13.96 -6 16 C-6.99 16 -7.98 16 -9 16 C-6.03 10.72 -3.06 5.44 0 0 Z " fill="#2A5294" transform="translate(167,78)"/>
<path d="M0 0 C0.66 0 1.32 0 2 0 C1.41892368 3.7602985 0.34800504 6.53035032 -1.5625 9.8125 C-2.01753906 10.60269531 -2.47257813 11.39289063 -2.94140625 12.20703125 C-3.29074219 12.79871094 -3.64007813 13.39039062 -4 14 C-4.66 13.67 -5.32 13.34 -6 13 C-6 12.34 -6 11.68 -6 11 C-5.34 11 -4.68 11 -4 11 C-3.87625 9.865625 -3.7525 8.73125 -3.625 7.5625 C-3.41875 6.386875 -3.2125 5.21125 -3 4 C-2.34 3.67 -1.68 3.34 -1 3 C-0.67 2.01 -0.34 1.02 0 0 Z " fill="#2D5496" transform="translate(155,53)"/>
<path d="M0 0 C0.99 0 1.98 0 3 0 C1.23570801 4.97209562 -1.3939166 9.43438061 -4 14 C-5.2077558 10.37673261 -4.54311128 9.35853631 -3 6 C-2.34 6 -1.68 6 -1 6 C-0.67 4.02 -0.34 2.04 0 0 Z " fill="#D43233" transform="translate(104,70)"/>
<path d="M0 0 C2 1 2 1 2.6328125 2.84765625 C2.79523437 3.57855469 2.95765625 4.30945313 3.125 5.0625 C3.29257812 5.79597656 3.46015625 6.52945313 3.6328125 7.28515625 C3.75398438 7.85105469 3.87515625 8.41695312 4 9 C2.68 9 1.36 9 0 9 C-0.66 7.02 -1.32 5.04 -2 3 C-1.34 3 -0.68 3 0 3 C0 2.01 0 1.02 0 0 Z " fill="#375994" transform="translate(52,167)"/>
<path d="M0 0 C0.99 0 1.98 0 3 0 C3.66 2.64 4.32 5.28 5 8 C3.68 8.33 2.36 8.66 1 9 C-0.4783226 6.04335481 -0.06032783 3.25770263 0 0 Z " fill="#2A4D90" transform="translate(95,141)"/>
<path d="M0 0 C0.33 0 0.66 0 1 0 C1.33663062 3.70293685 1.47736015 5.39534381 -0.875 8.375 C-3 10 -3 10 -5 10 C-3.66654496 6.40992874 -2.1056769 3.20429093 0 0 Z " fill="#284E98" transform="translate(173,68)"/>
<path d="M0 0 C0.33 1.32 0.66 2.64 1 4 C0.01 5.485 0.01 5.485 -1 7 C-0.34 7 0.32 7 1 7 C0.34 8.32 -0.32 9.64 -1 11 C-1.33 10.34 -1.66 9.68 -2 9 C-2.99 8.67 -3.98 8.34 -5 8 C-3.35 5.36 -1.7 2.72 0 0 Z " fill="#244D97" transform="translate(170,37)"/>
<path d="M0 0 C0.66 0.33 1.32 0.66 2 1 C0.02 4.63 -1.96 8.26 -4 12 C-4.33 12 -4.66 12 -5 12 C-5.3125 8.8125 -5.3125 8.8125 -5 5 C-2.5 2.0625 -2.5 2.0625 0 0 Z " fill="#E8F0FA" transform="translate(124,43)"/>
<path d="M0 0 C0.33 0 0.66 0 1 0 C1 3.63 1 7.26 1 11 C0.67 10.01 0.34 9.02 0 8 C-1.32 8.33 -2.64 8.66 -4 9 C-2.68 6.03 -1.36 3.06 0 0 Z " fill="#C0D2E8" transform="translate(139,165)"/>
<path d="M0 0 C0.33 0 0.66 0 1 0 C1.39451163 3.45197673 1.21819966 4.7017938 -0.875 7.5625 C-1.57625 8.366875 -2.2775 9.17125 -3 10 C-3.70885894 11.31138904 -4.39456452 12.63777017 -5 14 C-5.66 14 -6.32 14 -7 14 C-5.23570801 9.02790438 -2.6060834 4.56561939 0 0 Z " fill="#2E5093" transform="translate(136,25)"/>
<path d="M0 0 C2.64 0 5.28 0 8 0 C6.8141763 3.37503669 5.72426311 5.64722731 3 8 C2.957279 6.33388095 2.95936168 4.66617115 3 3 C3.33 2.67 3.66 2.34 4 2 C2.68 1.34 1.36 0.68 0 0 Z " fill="#294D90" transform="translate(166,24)"/>
<path d="M0 0 C1.32 0 2.64 0 4 0 C3.75 1.875 3.75 1.875 3 4 C0.9375 5.25 0.9375 5.25 -1 6 C-1.99 5.01 -2.98 4.02 -4 3 C-3.01 2.67 -2.02 2.34 -1 2 C-0.67 1.34 -0.34 0.68 0 0 Z " fill="#3F6095" transform="translate(68,170)"/>
<path d="M0 0 C0.66 0 1.32 0 2 0 C2.33 1.32 2.66 2.64 3 4 C0.69 5.65 -1.62 7.3 -4 9 C-2.94124926 5.59687262 -1.99097846 2.98646769 0 0 Z " fill="#214B92" transform="translate(153,67)"/>
<path d="M0 0 C0.66 0.33 1.32 0.66 2 1 C2 3.97 2 6.94 2 10 C1.34 10 0.68 10 0 10 C-0.19412181 8.52168779 -0.38012131 7.04230684 -0.5625 5.5625 C-0.66691406 4.73878906 -0.77132812 3.91507813 -0.87890625 3.06640625 C-0.91886719 2.38449219 -0.95882812 1.70257813 -1 1 C-0.67 0.67 -0.34 0.34 0 0 Z " fill="#20468B" transform="translate(59,161)"/>
<path d="M0 0 C0.33 1.98 0.66 3.96 1 6 C0.01 6 -0.98 6 -2 6 C-2.33 4.68 -2.66 3.36 -3 2 C-4.98 2 -6.96 2 -9 2 C-9 1.67 -9 1.34 -9 1 C-5.94152152 0.45627049 -3.11227195 0 0 0 Z " fill="#3D5F98" transform="translate(173,146)"/>
<path d="M0 0 C3.00617269 3.00617269 2.59585316 5.82381598 3 10 C1.68 9.34 0.36 8.68 -1 8 C-1.125 2.25 -1.125 2.25 0 0 Z " fill="#224B91" transform="translate(169,138)"/>
<path d="M0 0 C0.99 0.33 1.98 0.66 3 1 C1.68 3.64 0.36 6.28 -1 9 C-1.33 9 -1.66 9 -2 9 C-2 6.36 -2 3.72 -2 1 C-1.34 0.67 -0.68 0.34 0 0 Z " fill="#2B509C" transform="translate(141,77)"/>
<path d="M0 0 C0.763125 0.20625 1.52625 0.4125 2.3125 0.625 C2.3125 1.285 2.3125 1.945 2.3125 2.625 C0.3325 3.285 -1.6475 3.945 -3.6875 4.625 C-4.3475 3.635 -5.0075 2.645 -5.6875 1.625 C-2.6875 -0.375 -2.6875 -0.375 0 0 Z " fill="#2B4E90" transform="translate(64.6875,158.375)"/>
<path d="M0 0 C1.485 0.99 1.485 0.99 3 2 C2.25 6.75 2.25 6.75 0 9 C-1.125 2.25 -1.125 2.25 0 0 Z " fill="#224E93" transform="translate(164,105)"/>
<path d="M0 0 C0.66 0.33 1.32 0.66 2 1 C0.02 4.63 -1.96 8.26 -4 12 C-4.33 12 -4.66 12 -5 12 C-5 10.35 -5 8.7 -5 7 C-4.34 7 -3.68 7 -3 7 C-2.690625 6.21625 -2.38125 5.4325 -2.0625 4.625 C-1 2 -1 2 0 0 Z " fill="#D13139" transform="translate(95,88)"/>
<path d="M0 0 C0.66 0 1.32 0 2 0 C1.5206753 4.31392226 0.2542015 6.16569547 -3 9 C-3.33 8.34 -3.66 7.68 -4 7 C-3.22265625 5.2734375 -3.22265625 5.2734375 -2.0625 3.375 C-1.381875 2.26125 -0.70125 1.1475 0 0 Z " fill="#E2EEFB" transform="translate(143,79)"/>
<path d="M0 0 C0.95465783 2.16967689 1.14401212 3.56328793 0.3984375 5.82421875 C-0.35870385 7.5684743 -1.17609198 9.28627131 -2 11 C-2.99 11 -3.98 11 -5 11 C-3.55049545 7.2089881 -1.84827434 3.6125362 0 0 Z " fill="#2D5297" transform="translate(120,53)"/>
<path d="M0 0 C2.29633824 3.44450737 2.54016485 5.93812283 3 10 C1.68 10 0.36 10 -1 10 C-0.67 6.7 -0.34 3.4 0 0 Z " fill="#44649B" transform="translate(86,166)"/>
<path d="M0 0 C1.9451 2.91765 2.45276317 4.62537285 3 8 C1.68 8 0.36 8 -1 8 C-1.33 6.68 -1.66 5.36 -2 4 C-1.34 4 -0.68 4 0 4 C0 2.68 0 1.36 0 0 Z " fill="#3B5B92" transform="translate(142,144)"/>
<path d="M0 0 C1 2 1 2 0.25 4.9375 C-0.89726872 7.74830836 -1.69701628 9.1157406 -4 11 C-4.66 10.67 -5.32 10.34 -6 10 C-4.02 6.7 -2.04 3.4 0 0 Z " fill="#345895" transform="translate(113,66)"/>
<path d="M0 0 C0.66 0.33 1.32 0.66 2 1 C-0.475 5.455 -0.475 5.455 -3 10 C-3.33 10 -3.66 10 -4 10 C-4.41176754 6.39703406 -4.1535853 5.21597933 -2 2.1875 C-1.34 1.465625 -0.68 0.74375 0 0 Z " fill="#274E91" transform="translate(162,42)"/>
<path d="M0 0 C0.99 0 1.98 0 3 0 C2.39816251 2.02045442 1.72693904 4.02111039 1 6 C0.01 6.495 0.01 6.495 -1 7 C-1.625 4.625 -1.625 4.625 -2 2 C-1.34 1.34 -0.68 0.68 0 0 Z " fill="#284F98" transform="translate(128,64)"/>
<path d="M0 0 C2.15377564 2.62198774 3.40072174 4.64404172 4 8 C3.01 7.67 2.02 7.34 1 7 C0.67 7.66 0.34 8.32 0 9 C0 6.03 0 3.06 0 0 Z " fill="#DCECF8" transform="translate(129,166)"/>
<path d="M0 0 C0.99 0.66 1.98 1.32 3 2 C2.67 3.32 2.34 4.64 2 6 C2.99 6.33 3.98 6.66 5 7 C3.68 7 2.36 7 1 7 C0.67 6.01 0.34 5.02 0 4 C-0.99 4 -1.98 4 -3 4 C-2.01 2.68 -1.02 1.36 0 0 Z " fill="#D7E5F4" transform="translate(128,146)"/>
<path d="M0 0 C0.66 0 1.32 0 2 0 C0.7508258 3.45925163 -0.67527795 6.14693203 -3 9 C-2.25 2.25 -2.25 2.25 0 0 Z " fill="#DEEFF8" transform="translate(134,25)"/>
<path d="M0 0 C0.33 0 0.66 0 1 0 C1.33 2.64 1.66 5.28 2 8 C0.68 8 -0.64 8 -2 8 C-1.34 5.36 -0.68 2.72 0 0 Z " fill="#3F6299" transform="translate(42,168)"/>
<path d="M0 0 C1.74627478 2.61941217 2.38722388 4.03824877 3 7 C1.68 7 0.36 7 -1 7 C-0.67 4.69 -0.34 2.38 0 0 Z " fill="#C2D8F3" transform="translate(81,162)"/>
<path d="M0 0 C2.35953094 2.35953094 2.49141413 3.77895617 3 7 C1.68 7 0.36 7 -1 7 C-0.67 4.69 -0.34 2.38 0 0 Z " fill="#C7DCF4" transform="translate(166,138)"/>
<path d="M0 0 C0.33 0 0.66 0 1 0 C1 2.64 1 5.28 1 8 C-0.32 7.67 -1.64 7.34 -3 7 C-2.01 4.69 -1.02 2.38 0 0 Z " fill="#18479F" transform="translate(172,113)"/>
<path d="M0 0 C1 2 1 2 0.3125 5.0625 C-0.120625 6.031875 -0.55375 7.00125 -1 8 C-2.32 8.33 -3.64 8.66 -5 9 C-3.35 6.03 -1.7 3.06 0 0 Z " fill="#335297" transform="translate(127,77)"/>
<path d="M0 0 C1.485 0.99 1.485 0.99 3 2 C2.67 3.32 2.34 4.64 2 6 C1.01 6 0.02 6 -1 6 C-0.67 4.02 -0.34 2.04 0 0 Z " fill="#3A5A92" transform="translate(75,170)"/>
<path d="M0 0 C0.66 0 1.32 0 2 0 C2.33 1.65 2.66 3.3 3 5 C2.01 5.33 1.02 5.66 0 6 C-0.38218767 4.34385343 -0.71395102 2.67542976 -1 1 C-0.67 0.67 -0.34 0.34 0 0 Z " fill="#244D92" transform="translate(77,166)"/>
<path d="M0 0 C1.5 1.3125 1.5 1.3125 3 3 C3 3.99 3 4.98 3 6 C1.68 6 0.36 6 -1 6 C-0.67 4.02 -0.34 2.04 0 0 Z " fill="#C7DEF8" transform="translate(47,163)"/>
<path d="M0 0 C0.66 0 1.32 0 2 0 C2.66 1.65 3.32 3.3 4 5 C2.35 4.67 0.7 4.34 -1 4 C-0.67 2.68 -0.34 1.36 0 0 Z " fill="#2D518E" transform="translate(88,147)"/>
<path d="M0 0 C0.33 0.66 0.66 1.32 1 2 C0.06421005 4.35981813 -0.93347808 6.69631264 -2 9 C-2.66 9 -3.32 9 -4 9 C-2.94124926 5.59687262 -1.99097846 2.98646769 0 0 Z " fill="#FEDFDC" transform="translate(70,110)"/>
<path d="M0 0 C0.66 0 1.32 0 2 0 C0.7508258 3.45925163 -0.67527795 6.14693203 -3 9 C-3.25532751 5.93606987 -3.21861333 4.36766788 -1.625 1.6875 C-0.820625 0.8521875 -0.820625 0.8521875 0 0 Z " fill="#FED9DA" transform="translate(49,80)"/>
<path d="M0 0 C2 1 2 1 2.875 2.75 C3 5 3 5 1.0625 7.75 C0.381875 8.4925 -0.29875 9.235 -1 10 C-0.67 6.7 -0.34 3.4 0 0 Z " fill="#2E5399" transform="translate(122,72)"/>
<path d="M0 0 C0.33 0 0.66 0 1 0 C1.41176754 3.60296594 1.1535853 4.78402067 -1 7.8125 C-1.66 8.534375 -2.32 9.25625 -3 10 C-3 8.02 -3 6.04 -3 4 C-2.01 4 -1.02 4 0 4 C0 2.68 0 1.36 0 0 Z " fill="#284E92" transform="translate(173,57)"/>
<path d="M0 0 C0.66 0 1.32 0 2 0 C1.75 2.375 1.75 2.375 1 5 C-1.0625 6.3125 -1.0625 6.3125 -3 7 C-1.125 2.25 -1.125 2.25 0 0 Z " fill="#E1F1FB" transform="translate(141,47)"/>
</svg>
